<svg width="335" height="278" viewBox="0 0 335 278" fill="none" xmlns="http://www.w3.org/2000/svg">
<rect width="334.996" height="277.931" rx="6.41871" transform="matrix(1 0 -1.64454e-06 1 0 0)" fill="white"/>
<path d="M23.3921 25.7326C23.3465 25.2729 23.1509 24.9158 22.8052 24.6613C22.4595 24.4067 21.9903 24.2795 21.3977 24.2795C20.995 24.2795 20.655 24.3365 20.3777 24.4504C20.1003 24.5606 19.8876 24.7145 19.7394 24.912C19.5951 25.1095 19.5229 25.3337 19.5229 25.5844C19.5153 25.7934 19.559 25.9757 19.654 26.1315C19.7527 26.2872 19.8876 26.4221 20.0585 26.5361C20.2295 26.6462 20.427 26.7431 20.6512 26.8267C20.8753 26.9065 21.1147 26.9748 21.3692 27.0318L22.4177 27.2825C22.9268 27.3965 23.394 27.5485 23.8195 27.7384C24.245 27.9284 24.6135 28.162 24.925 28.4393C25.2365 28.7166 25.4777 29.0434 25.6487 29.4195C25.8235 29.7956 25.9127 30.2267 25.9165 30.713C25.9127 31.4272 25.7304 32.0464 25.3695 32.5707C25.0124 33.0911 24.4957 33.4957 23.8195 33.7844C23.1471 34.0694 22.336 34.2118 21.3863 34.2118C20.4441 34.2118 19.6236 34.0675 18.9246 33.7788C18.2293 33.49 17.6861 33.0626 17.2948 32.4966C16.9073 31.9268 16.7041 31.2221 16.6851 30.3825L19.0727 30.3825C19.0993 30.7738 19.2114 31.1005 19.4089 31.3626C19.6103 31.6209 19.8781 31.8166 20.2124 31.9496C20.5505 32.0787 20.9323 32.1433 21.3578 32.1433C21.7757 32.1433 22.1385 32.0825 22.4462 31.961C22.7577 31.8394 22.9989 31.6703 23.1699 31.4538C23.3408 31.2373 23.4263 30.9884 23.4263 30.7073C23.4263 30.4452 23.3484 30.2248 23.1927 30.0463C23.0407 29.8677 22.8166 29.7158 22.5203 29.5904C22.2277 29.465 21.8687 29.3511 21.4433 29.2485L20.1725 28.9294C19.1886 28.6901 18.4117 28.3159 17.8419 27.8068C17.272 27.2977 16.989 26.612 16.9928 25.7497C16.989 25.0431 17.177 24.4257 17.5569 23.8977C17.9406 23.3696 18.4668 22.9574 19.1354 22.6611C19.804 22.3648 20.5638 22.2166 21.4148 22.2166C22.2809 22.2166 23.0369 22.3648 23.6828 22.6611C24.3324 22.9574 24.8376 23.3696 25.1985 23.8977C25.5594 24.4257 25.7456 25.0374 25.757 25.7326L23.3921 25.7326ZM29.6253 34.2118C29.0669 34.2118 28.5692 34.115 28.1324 33.9212C27.6955 33.7237 27.3498 33.433 27.0952 33.0494C26.8445 32.6619 26.7191 32.1794 26.7191 31.602C26.7191 31.1157 26.8084 30.7073 26.987 30.3768C27.1655 30.0463 27.4087 29.7804 27.7164 29.579C28.0241 29.3777 28.3736 29.2257 28.7649 29.1231C29.16 29.0206 29.5741 28.9484 30.0071 28.9066C30.5162 28.8534 30.9265 28.804 31.238 28.7584C31.5495 28.7091 31.7756 28.6369 31.9161 28.5419C32.0567 28.4469 32.127 28.3064 32.127 28.1202L32.127 28.086C32.127 27.7251 32.013 27.4459 31.7851 27.2484C31.5609 27.0508 31.2418 26.952 30.8277 26.952C30.3908 26.952 30.0432 27.0489 29.7849 27.2427C29.5266 27.4326 29.3556 27.6719 29.272 27.9607L27.0269 27.7783C27.1408 27.2465 27.365 26.7868 27.6993 26.3993C28.0336 26.008 28.4648 25.7079 28.9928 25.4989C29.5247 25.2862 30.1401 25.1798 30.8391 25.1798C31.3254 25.1798 31.7908 25.2368 32.2352 25.3508C32.6835 25.4647 33.0805 25.6414 33.4262 25.8807C33.7757 26.1201 34.0511 26.4278 34.2525 26.8039C34.4538 27.1762 34.5545 27.6226 34.5545 28.143L34.5545 34.0466L32.2523 34.0466L32.2523 32.8328L32.1839 32.8328C32.0434 33.1063 31.8553 33.3476 31.6198 33.5565C31.3843 33.7617 31.1012 33.9231 30.7707 34.0409C30.4402 34.1548 30.0584 34.2118 29.6253 34.2118ZM30.3205 32.5365C30.6777 32.5365 30.993 32.4662 31.2665 32.3257C31.54 32.1813 31.7547 31.9875 31.9104 31.7444C32.0662 31.5013 32.144 31.2259 32.144 30.9181L32.144 29.9893C32.0681 30.0387 31.9636 30.0843 31.8306 30.1261C31.7015 30.1641 31.5552 30.2001 31.3919 30.2343C31.2285 30.2647 31.0651 30.2932 30.9018 30.3198C30.7384 30.3426 30.5903 30.3635 30.4573 30.3825C30.1724 30.4243 29.9236 30.4908 29.7108 30.5819C29.4981 30.6731 29.3328 30.7966 29.2151 30.9523C29.0973 31.1043 29.0384 31.2942 29.0384 31.5222C29.0384 31.8527 29.1581 32.1053 29.3974 32.2801C29.6405 32.451 29.9483 32.5365 30.3205 32.5365ZM38.4642 22.3762L38.4642 34.0466L36.0366 34.0466L36.0367 22.3762L38.4642 22.3762ZM43.9965 34.2175C43.0961 34.2175 42.3211 34.0352 41.6715 33.6705C41.0257 33.302 40.528 32.7815 40.1785 32.1091C39.829 31.4329 39.6543 30.6332 39.6543 29.7101C39.6543 28.8097 39.829 28.0195 40.1785 27.3395C40.5281 26.6595 41.02 26.1296 41.6544 25.7497C42.2927 25.3698 43.0411 25.1798 43.8996 25.1798C44.4771 25.1798 45.0146 25.2729 45.5123 25.4591C46.0137 25.6414 46.4506 25.9168 46.8229 26.2853C47.199 26.6538 47.4915 27.1173 47.7005 27.6757C47.9094 28.2304 48.0139 28.88 48.0139 29.6246L48.0139 30.2913L40.623 30.2913L40.623 28.7869L45.7288 28.7869C45.7288 28.4374 45.6528 28.1278 45.5009 27.8581C45.3489 27.5884 45.1381 27.3775 44.8684 27.2256C44.6024 27.0698 44.2928 26.9919 43.9395 26.9919C43.571 26.9919 43.2443 27.0774 42.9594 27.2484C42.6783 27.4155 42.4579 27.6415 42.2984 27.9265C42.1388 28.2076 42.0571 28.521 42.0533 28.8667L42.0533 30.297C42.0533 30.7301 42.1331 31.1043 42.2927 31.4196C42.456 31.7349 42.6858 31.978 42.9822 32.149C43.2785 32.32 43.6299 32.4054 44.0364 32.4054C44.3061 32.4054 44.553 32.3674 44.7772 32.2915C45.0013 32.2155 45.1932 32.1015 45.3527 31.9496C45.5123 31.7976 45.6338 31.6115 45.7174 31.3911L47.9626 31.5393C47.8486 32.0787 47.615 32.5498 47.2617 32.9525C46.9122 33.3514 46.4601 33.6629 45.9055 33.887C45.3546 34.1074 44.7183 34.2175 43.9965 34.2175ZM56.4795 27.7897L54.2571 27.9265C54.2191 27.7365 54.1374 27.5656 54.012 27.4136C53.8867 27.2579 53.7214 27.1344 53.5163 27.0432C53.3149 26.9482 53.0737 26.9008 52.7926 26.9008C52.4165 26.9008 52.0993 26.9805 51.8409 27.1401C51.5826 27.2958 51.4535 27.5048 51.4535 27.7669C51.4535 27.9759 51.537 28.1525 51.7042 28.2969C51.8713 28.4412 52.1582 28.5571 52.5646 28.6445L54.1488 28.9636C54.9998 29.1383 55.6342 29.4195 56.0521 29.8069C56.47 30.1944 56.6789 30.7035 56.6789 31.3341C56.6789 31.9078 56.5099 32.4111 56.1717 32.8442C55.8374 33.2773 55.3778 33.6154 54.7927 33.8585C54.2115 34.0979 53.541 34.2175 52.7812 34.2175C51.6225 34.2175 50.6994 33.9763 50.0117 33.4938C49.3279 33.0076 48.9271 32.3465 48.8094 31.5108L51.197 31.3854C51.2692 31.7387 51.444 32.0084 51.7213 32.1946C51.9986 32.3769 52.3538 32.4681 52.7869 32.4681C53.2124 32.4681 53.5543 32.3864 53.8126 32.2231C54.0747 32.0559 54.2077 31.8413 54.2115 31.5792C54.2077 31.3588 54.1146 31.1784 53.9323 31.0378C53.7499 30.8934 53.4688 30.7833 53.0889 30.7073L51.5731 30.4053C50.7184 30.2343 50.082 29.938 49.6641 29.5163C49.2501 29.0946 49.043 28.5571 49.043 27.9037C49.043 27.3414 49.195 26.8571 49.4989 26.4506C49.8066 26.0441 50.2378 25.7307 50.7924 25.5103C51.3509 25.29 52.0043 25.1798 52.7527 25.1798C53.8582 25.1798 54.7282 25.4135 55.3626 25.8807C56.0008 26.348 56.3731 26.9843 56.4795 27.7897ZM61.1647 34.0466L61.1647 22.3762L65.769 22.3762C66.6504 22.3762 67.4026 22.5339 68.0256 22.8492C68.6524 23.1607 69.1292 23.6033 69.4559 24.1769C69.7864 24.7467 69.9517 25.4173 69.9517 26.1884C69.9517 26.9634 69.7845 27.6302 69.4502 28.1886C69.1159 28.7432 68.6315 29.1687 67.9971 29.465C67.3665 29.7614 66.6029 29.9095 65.7064 29.9095L62.6235 29.9095L62.6235 27.9265L65.3075 27.9265C65.7785 27.9265 66.1698 27.8619 66.4813 27.7327C66.7929 27.6036 67.0246 27.4098 67.1766 27.1515C67.3323 26.8932 67.4102 26.5721 67.4102 26.1884C67.4102 25.801 67.3323 25.4742 67.1766 25.2083C67.0246 24.9424 66.791 24.741 66.4756 24.6043C66.1641 24.4637 65.7709 24.3934 65.2961 24.3934L63.6321 24.3934L63.6321 34.0466L61.1647 34.0466ZM67.4672 28.7356L70.3677 34.0466L67.6438 34.0466L64.806 28.7356L67.4672 28.7356ZM75.0965 34.2175C74.1961 34.2175 73.4212 34.0352 72.7715 33.6705C72.1257 33.302 71.6281 32.7815 71.2786 32.1091C70.929 31.4329 70.7543 30.6332 70.7543 29.7101C70.7543 28.8097 70.9291 28.0195 71.2786 27.3395C71.6281 26.6595 72.12 26.1296 72.7545 25.7497C73.3927 25.3698 74.1411 25.1798 74.9996 25.1798C75.5771 25.1798 76.1146 25.2729 76.6123 25.4591C77.1138 25.6414 77.5506 25.9168 77.9229 26.2853C78.299 26.6538 78.5915 27.1173 78.8005 27.6757C79.0094 28.2304 79.1139 28.88 79.1139 29.6246L79.1139 30.2913L71.723 30.2913L71.723 28.7869L76.8288 28.7869C76.8288 28.4374 76.7528 28.1278 76.6009 27.8581C76.4489 27.5884 76.2381 27.3775 75.9684 27.2256C75.7024 27.0698 75.3928 26.9919 75.0395 26.9919C74.671 26.9919 74.3443 27.0774 74.0594 27.2484C73.7783 27.4155 73.5579 27.6415 73.3984 27.9265C73.2388 28.2076 73.1571 28.521 73.1533 28.8667L73.1533 30.297C73.1533 30.7301 73.2331 31.1043 73.3927 31.4196C73.556 31.7349 73.7859 31.978 74.0822 32.149C74.3785 32.32 74.7299 32.4054 75.1364 32.4054C75.4061 32.4054 75.653 32.3674 75.8772 32.2915C76.1013 32.2155 76.2932 32.1015 76.4527 31.9496C76.6123 31.7976 76.7338 31.6115 76.8174 31.3911L79.0626 31.5393C78.9486 32.0787 78.715 32.5498 78.3617 32.9525C78.0122 33.3514 77.5601 33.6629 77.0055 33.887C76.4546 34.1074 75.8183 34.2175 75.0965 34.2175ZM80.2969 37.3289L80.2969 25.2938L82.6902 25.2938L82.6902 26.764L82.7985 26.764C82.9049 26.5285 83.0587 26.2891 83.2601 26.046C83.4652 25.7991 83.7311 25.5939 84.0579 25.4306C84.3884 25.2634 84.7986 25.1798 85.2887 25.1798C85.9269 25.1798 86.5158 25.347 87.0552 25.6813C87.5947 26.0118 88.0259 26.5114 88.3488 27.18C88.6717 27.8448 88.8331 28.6787 88.8331 29.6816C88.8331 30.6579 88.6755 31.4823 88.3602 32.1547C88.0486 32.8233 87.6232 33.3305 87.0837 33.6762C86.5481 34.0181 85.9478 34.189 85.283 34.189C84.8119 34.189 84.4111 34.1112 84.0806 33.9554C83.7539 33.7996 83.4861 33.604 83.2772 33.3685C83.0682 33.1291 82.9087 32.8879 82.7985 32.6448L82.7244 32.6448L82.7244 37.3289L80.2969 37.3289ZM82.6731 29.6702C82.6731 30.1906 82.7453 30.6446 82.8897 31.0321C83.034 31.4196 83.243 31.7216 83.5165 31.9382C83.79 32.1509 84.1224 32.2573 84.5137 32.2573C84.9088 32.2573 85.2431 32.149 85.5166 31.9325C85.7902 31.7121 85.9972 31.4082 86.1378 31.0207C86.2821 30.6294 86.3543 30.1792 86.3543 29.6702C86.3543 29.1649 86.284 28.7204 86.1435 28.3368C86.0029 27.9531 85.7959 27.6529 85.5223 27.4364C85.2488 27.2199 84.9126 27.1116 84.5137 27.1116C84.1186 27.1116 83.7843 27.2161 83.5108 27.425C83.2411 27.6339 83.034 27.9303 82.8897 28.314C82.7453 28.6977 82.6731 29.1497 82.6731 29.6702ZM94.005 34.2175C93.1199 34.2175 92.3544 34.0295 91.7085 33.6534C91.0665 33.2735 90.5708 32.7454 90.2213 32.0692C89.8718 31.3892 89.697 30.6009 89.697 29.7044C89.697 28.8002 89.8718 28.01 90.2213 27.3338C90.5708 26.6538 91.0665 26.1258 91.7086 25.7497C92.3544 25.3698 93.1199 25.1798 94.005 25.1798C94.8902 25.1798 95.6538 25.3698 96.2958 25.7497C96.9416 26.1258 97.4393 26.6538 97.7888 27.3338C98.1383 28.01 98.313 28.8002 98.313 29.7044C98.313 30.6009 98.1383 31.3892 97.7888 32.0692C97.4393 32.7454 96.9416 33.2735 96.2958 33.6534C95.6538 34.0295 94.8902 34.2175 94.005 34.2175ZM94.0164 32.337C94.4191 32.337 94.7553 32.2231 95.025 31.9951C95.2948 31.7634 95.498 31.4481 95.6348 31.0492C95.7753 30.6503 95.8456 30.1963 95.8456 29.6873C95.8456 29.1782 95.7753 28.7242 95.6348 28.3254C95.498 27.9265 95.2948 27.6112 95.025 27.3794C94.7553 27.1477 94.4191 27.0318 94.0164 27.0318C93.6099 27.0318 93.268 27.1477 92.9907 27.3794C92.7172 27.6112 92.5101 27.9265 92.3696 28.3254C92.2328 28.7242 92.1644 29.1782 92.1644 29.6873C92.1644 30.1963 92.2328 30.6503 92.3696 31.0492C92.5101 31.4481 92.7172 31.7634 92.9907 31.9951C93.268 32.2231 93.6099 32.337 94.0164 32.337ZM99.4903 34.0466L99.4903 25.2938L101.844 25.2938L101.844 26.821L101.935 26.821C102.095 26.2777 102.362 25.8674 102.738 25.5901C103.115 25.309 103.548 25.1684 104.038 25.1684C104.159 25.1684 104.29 25.176 104.431 25.1912C104.571 25.2064 104.695 25.2273 104.801 25.2539L104.801 27.4079C104.687 27.3737 104.53 27.3433 104.328 27.3167C104.127 27.2901 103.943 27.2768 103.776 27.2768C103.418 27.2768 103.099 27.3547 102.818 27.5105C102.541 27.6624 102.321 27.8752 102.157 28.1487C101.998 28.4222 101.918 28.7375 101.918 29.0946L101.918 34.0466L99.4903 34.0466ZM110.75 25.2938L110.75 27.1173L105.479 27.1173L105.479 25.2938L110.75 25.2938ZM106.675 23.1968L109.103 23.1968L109.103 31.3569C109.103 31.5811 109.137 31.7558 109.205 31.8812C109.274 32.0027 109.369 32.0882 109.49 32.1376C109.616 32.187 109.76 32.2117 109.923 32.2117C110.037 32.2117 110.151 32.2022 110.265 32.1832C110.379 32.1604 110.467 32.1433 110.527 32.1319L110.909 33.9383C110.788 33.9763 110.617 34.02 110.396 34.0694C110.176 34.1226 109.908 34.1548 109.593 34.1662C109.008 34.189 108.495 34.1112 108.054 33.9326C107.617 33.7541 107.277 33.4767 107.034 33.1006C106.791 32.7245 106.671 32.2497 106.675 31.676L106.675 23.1968Z" fill="#1D1E25"/>
<g clip-path="url(#clip0_266_7741)">
<mask id="mask0_266_7741" style="mask-type:luminance" maskUnits="userSpaceOnUse" x="20" y="59" width="295" height="209">
<rect width="294" height="208" transform="matrix(1 0 -1.64456e-06 1 20.498 59.8842)" fill="white"/>
</mask>
<g mask="url(#mask0_266_7741)">
<g clip-path="url(#clip1_266_7741)">
<path d="M291.143 252.737C291.143 253.475 291.009 254.113 290.743 254.651C290.476 255.189 290.11 255.604 289.645 255.896C289.18 256.188 288.649 256.334 288.052 256.334C287.455 256.334 286.924 256.188 286.459 255.896C285.994 255.604 285.628 255.189 285.361 254.651C285.094 254.113 284.961 253.475 284.961 252.737C284.961 251.998 285.094 251.36 285.361 250.822C285.628 250.284 285.994 249.869 286.459 249.577C286.924 249.286 287.455 249.14 288.052 249.14C288.649 249.14 289.18 249.286 289.645 249.577C290.11 249.869 290.476 250.284 290.743 250.822C291.009 251.36 291.143 251.998 291.143 252.737ZM290.322 252.737C290.322 252.13 290.221 251.619 290.018 251.202C289.817 250.784 289.545 250.469 289.201 250.254C288.859 250.04 288.476 249.933 288.052 249.933C287.628 249.933 287.244 250.04 286.9 250.254C286.558 250.469 286.285 250.784 286.083 251.202C285.882 251.619 285.782 252.13 285.782 252.737C285.782 253.343 285.882 253.855 286.083 254.272C286.285 254.689 286.558 255.005 286.9 255.219C287.244 255.433 287.628 255.54 288.052 255.54C288.476 255.54 288.859 255.433 289.201 255.219C289.545 255.005 289.817 254.689 290.018 254.272C290.221 253.855 290.322 253.343 290.322 252.737ZM294.593 256.347C294.1 256.347 293.676 256.231 293.321 255.998C292.965 255.766 292.692 255.446 292.5 255.038C292.309 254.63 292.213 254.164 292.213 253.639C292.213 253.106 292.311 252.635 292.507 252.227C292.705 251.817 292.981 251.497 293.334 251.266C293.69 251.034 294.105 250.918 294.579 250.918C294.948 250.918 295.281 250.986 295.577 251.123C295.874 251.26 296.116 251.451 296.306 251.697C296.495 251.943 296.612 252.231 296.658 252.559L295.851 252.559C295.789 252.32 295.653 252.108 295.441 251.923C295.231 251.736 294.948 251.643 294.593 251.643C294.278 251.643 294.002 251.725 293.765 251.889C293.53 252.051 293.347 252.28 293.215 252.576C293.085 252.87 293.02 253.215 293.02 253.612C293.02 254.018 293.084 254.371 293.211 254.672C293.341 254.973 293.524 255.206 293.758 255.373C293.995 255.539 294.273 255.622 294.593 255.622C294.802 255.622 294.993 255.586 295.164 255.513C295.335 255.44 295.479 255.335 295.598 255.198C295.716 255.062 295.801 254.898 295.851 254.706L296.658 254.706C296.612 255.016 296.499 255.295 296.319 255.544C296.141 255.79 295.906 255.986 295.611 256.132C295.32 256.275 294.98 256.347 294.593 256.347ZM300.121 250.986L300.121 251.67L297.4 251.67L297.4 250.986L300.121 250.986ZM298.193 249.728L299 249.728L299 254.733C299 254.961 299.033 255.132 299.099 255.246C299.167 255.358 299.254 255.433 299.359 255.472C299.466 255.508 299.579 255.527 299.697 255.527C299.786 255.527 299.859 255.522 299.916 255.513C299.973 255.502 300.019 255.492 300.053 255.486L300.217 256.21C300.162 256.231 300.086 256.251 299.988 256.272C299.89 256.295 299.766 256.306 299.615 256.306C299.387 256.306 299.164 256.257 298.945 256.159C298.729 256.061 298.548 255.912 298.405 255.711C298.264 255.511 298.193 255.258 298.193 254.952L298.193 249.728Z" fill="#808D9E"/>
<path fill-rule="evenodd" clip-rule="evenodd" d="M292.004 242.813L292.004 96.6226L292.981 96.6226L292.981 242.813L292.004 242.813Z" fill="#E9ECF2"/>
</g>
<g clip-path="url(#clip2_266_7741)">
<path d="M246.364 250.986C246.323 250.64 246.156 250.371 245.864 250.179C245.573 249.988 245.215 249.892 244.791 249.892C244.481 249.892 244.21 249.942 243.977 250.042C243.747 250.143 243.567 250.281 243.437 250.456C243.309 250.632 243.245 250.831 243.245 251.054C243.245 251.241 243.29 251.402 243.379 251.537C243.47 251.669 243.586 251.779 243.728 251.868C243.869 251.955 244.017 252.027 244.172 252.084C244.327 252.138 244.469 252.183 244.599 252.217L245.311 252.408C245.493 252.456 245.696 252.522 245.919 252.607C246.145 252.691 246.36 252.806 246.565 252.952C246.773 253.096 246.944 253.28 247.078 253.506C247.213 253.732 247.28 254.009 247.28 254.337C247.28 254.715 247.181 255.057 246.982 255.362C246.786 255.668 246.499 255.911 246.121 256.091C245.745 256.271 245.288 256.361 244.75 256.361C244.248 256.361 243.814 256.28 243.447 256.118C243.082 255.956 242.795 255.731 242.586 255.441C242.378 255.152 242.261 254.815 242.233 254.432L243.109 254.432C243.131 254.697 243.22 254.916 243.375 255.089C243.533 255.26 243.731 255.388 243.97 255.472C244.212 255.554 244.472 255.595 244.75 255.595C245.074 255.595 245.364 255.543 245.622 255.438C245.879 255.331 246.083 255.182 246.234 254.993C246.384 254.802 246.459 254.578 246.459 254.323C246.459 254.091 246.394 253.901 246.264 253.755C246.135 253.61 245.964 253.491 245.752 253.4C245.54 253.309 245.311 253.229 245.064 253.161L244.203 252.914C243.656 252.757 243.223 252.533 242.904 252.241C242.584 251.949 242.425 251.567 242.425 251.095C242.425 250.703 242.531 250.362 242.743 250.07C242.957 249.776 243.244 249.548 243.604 249.386C243.967 249.222 244.371 249.14 244.818 249.14C245.27 249.14 245.671 249.221 246.022 249.383C246.373 249.542 246.651 249.761 246.856 250.039C247.063 250.317 247.173 250.633 247.184 250.986L246.364 250.986ZM250.767 256.347C250.26 256.347 249.824 256.235 249.457 256.012C249.092 255.786 248.811 255.472 248.613 255.068C248.416 254.663 248.318 254.191 248.318 253.653C248.318 253.115 248.416 252.641 248.613 252.231C248.811 251.818 249.087 251.497 249.44 251.266C249.796 251.034 250.21 250.918 250.684 250.918C250.958 250.918 251.228 250.963 251.495 251.054C251.761 251.146 252.004 251.294 252.223 251.499C252.442 251.702 252.616 251.971 252.746 252.306C252.876 252.641 252.941 253.053 252.941 253.544L252.941 253.885L248.893 253.885L248.893 253.188L252.12 253.188C252.12 252.892 252.061 252.627 251.943 252.395C251.826 252.162 251.66 251.979 251.443 251.844C251.229 251.71 250.976 251.643 250.684 251.643C250.363 251.643 250.085 251.722 249.85 251.882C249.618 252.039 249.439 252.244 249.313 252.497C249.188 252.75 249.125 253.022 249.125 253.311L249.125 253.776C249.125 254.173 249.194 254.509 249.331 254.785C249.47 255.058 249.662 255.267 249.908 255.41C250.155 255.552 250.441 255.622 250.767 255.622C250.979 255.622 251.17 255.593 251.341 255.533C251.514 255.472 251.663 255.381 251.789 255.26C251.914 255.137 252.011 254.984 252.079 254.802L252.859 255.021C252.777 255.285 252.639 255.517 252.445 255.718C252.252 255.916 252.012 256.071 251.727 256.183C251.442 256.292 251.122 256.347 250.767 256.347ZM254.168 258.207L254.168 250.986L254.948 250.986L254.948 251.82L255.044 251.82C255.103 251.729 255.185 251.613 255.29 251.472C255.397 251.328 255.55 251.2 255.748 251.089C255.949 250.975 256.22 250.918 256.562 250.918C257.004 250.918 257.394 251.028 257.731 251.249C258.068 251.47 258.332 251.784 258.521 252.19C258.71 252.595 258.805 253.074 258.805 253.626C258.805 254.182 258.71 254.664 258.521 255.072C258.332 255.478 258.07 255.792 257.735 256.015C257.399 256.237 257.013 256.347 256.575 256.347C256.238 256.347 255.968 256.291 255.765 256.18C255.562 256.066 255.406 255.937 255.297 255.793C255.187 255.647 255.103 255.527 255.044 255.431L254.975 255.431L254.975 258.207L254.168 258.207ZM254.962 253.612C254.962 254.009 255.02 254.358 255.136 254.662C255.252 254.962 255.422 255.198 255.646 255.369C255.869 255.538 256.142 255.622 256.466 255.622C256.803 255.622 257.085 255.533 257.311 255.356C257.539 255.176 257.709 254.934 257.823 254.631C257.94 254.325 257.998 253.986 257.998 253.612C257.998 253.243 257.941 252.91 257.827 252.614C257.715 252.315 257.545 252.079 257.317 251.906C257.092 251.73 256.808 251.643 256.466 251.643C256.138 251.643 255.862 251.726 255.639 251.892C255.415 252.056 255.247 252.286 255.133 252.583C255.019 252.877 254.962 253.22 254.962 253.612Z" fill="#808D9E"/>
<path fill-rule="evenodd" clip-rule="evenodd" d="M250.004 242.813L250.004 96.6225L250.981 96.6225L250.981 242.813L250.004 242.813Z" fill="#E9ECF2"/>
</g>
<g clip-path="url(#clip3_266_7741)">
<path d="M199.176 256.238L198.287 256.238L200.858 249.236L201.734 249.236L204.305 256.238L203.416 256.238L201.323 250.343L201.269 250.343L199.176 256.238ZM199.504 253.502L203.088 253.502L203.088 254.255L199.504 254.255L199.504 253.502ZM208.596 254.091L208.596 250.986L209.403 250.986L209.403 256.238L208.596 256.238L208.596 255.349L208.541 255.349C208.418 255.615 208.226 255.842 207.967 256.029C207.707 256.214 207.379 256.306 206.982 256.306C206.654 256.306 206.362 256.234 206.107 256.091C205.851 255.945 205.651 255.726 205.505 255.434C205.359 255.14 205.286 254.77 205.286 254.323L205.286 250.986L206.093 250.986L206.093 254.268C206.093 254.651 206.2 254.957 206.414 255.185C206.631 255.413 206.907 255.527 207.242 255.527C207.442 255.527 207.646 255.475 207.854 255.373C208.064 255.27 208.239 255.113 208.38 254.901C208.524 254.689 208.596 254.419 208.596 254.091ZM213 258.317C212.611 258.317 212.276 258.266 211.995 258.166C211.715 258.068 211.481 257.938 211.294 257.776C211.11 257.617 210.963 257.446 210.853 257.263L211.496 256.812C211.569 256.908 211.661 257.017 211.773 257.14C211.885 257.266 212.037 257.374 212.231 257.465C212.427 257.559 212.684 257.605 213 257.605C213.424 257.605 213.774 257.503 214.05 257.298C214.326 257.092 214.464 256.771 214.464 256.333L214.464 255.267L214.395 255.267C214.336 255.362 214.252 255.481 214.142 255.622C214.035 255.761 213.88 255.886 213.677 255.995C213.477 256.102 213.205 256.156 212.864 256.156C212.44 256.156 212.059 256.055 211.722 255.855C211.387 255.654 211.121 255.362 210.925 254.98C210.731 254.597 210.634 254.132 210.634 253.585C210.634 253.047 210.729 252.578 210.918 252.179C211.107 251.778 211.371 251.468 211.708 251.249C212.045 251.028 212.435 250.918 212.877 250.918C213.219 250.918 213.49 250.975 213.691 251.089C213.894 251.2 214.049 251.328 214.156 251.472C214.265 251.613 214.35 251.729 214.409 251.82L214.491 251.82L214.491 250.986L215.271 250.986L215.271 256.388C215.271 256.839 215.168 257.206 214.963 257.489C214.76 257.774 214.486 257.983 214.142 258.115C213.8 258.249 213.42 258.317 213 258.317ZM212.973 255.431C213.297 255.431 213.57 255.357 213.794 255.209C214.017 255.06 214.187 254.847 214.303 254.569C214.419 254.291 214.477 253.958 214.477 253.571C214.477 253.192 214.42 252.859 214.306 252.569C214.192 252.28 214.024 252.053 213.8 251.889C213.577 251.725 213.301 251.643 212.973 251.643C212.631 251.643 212.346 251.729 212.118 251.902C211.893 252.076 211.723 252.308 211.609 252.6C211.497 252.892 211.441 253.215 211.441 253.571C211.441 253.936 211.498 254.258 211.612 254.538C211.728 254.817 211.899 255.035 212.125 255.195C212.353 255.352 212.636 255.431 212.973 255.431Z" fill="#808D9E"/>
<path fill-rule="evenodd" clip-rule="evenodd" d="M206.05 242.813L206.05 96.6226L207.027 96.6226L207.027 242.813L206.05 242.813Z" fill="#E9ECF2"/>
</g>
<g clip-path="url(#clip4_266_7741)">
<path d="M162.002 249.235L162.85 249.235L162.85 254.241C162.85 254.688 162.768 255.067 162.604 255.379C162.44 255.692 162.209 255.929 161.91 256.091C161.611 256.252 161.259 256.333 160.853 256.333C160.471 256.333 160.13 256.264 159.831 256.125C159.533 255.984 159.298 255.783 159.127 255.523C158.956 255.263 158.87 254.954 158.87 254.597L159.705 254.597C159.705 254.795 159.754 254.968 159.852 255.116C159.952 255.262 160.089 255.376 160.262 255.458C160.435 255.54 160.632 255.581 160.853 255.581C161.097 255.581 161.305 255.53 161.476 255.427C161.647 255.325 161.777 255.174 161.866 254.976C161.957 254.775 162.002 254.53 162.002 254.241L162.002 249.235ZM167.75 254.091L167.75 250.986L168.557 250.986L168.557 256.238L167.75 256.238L167.75 255.349L167.695 255.349C167.572 255.615 167.38 255.842 167.121 256.029C166.861 256.214 166.533 256.306 166.136 256.306C165.808 256.306 165.516 256.234 165.261 256.091C165.005 255.945 164.805 255.726 164.659 255.434C164.513 255.14 164.44 254.77 164.44 254.323L164.44 250.986L165.247 250.986L165.247 254.268C165.247 254.651 165.354 254.957 165.568 255.185C165.785 255.413 166.061 255.527 166.396 255.527C166.596 255.527 166.8 255.475 167.008 255.373C167.217 255.27 167.393 255.113 167.534 254.901C167.678 254.689 167.75 254.419 167.75 254.091ZM170.841 249.235L170.841 256.238L170.034 256.238L170.034 249.235L170.841 249.235Z" fill="#808D9E"/>
<path fill-rule="evenodd" clip-rule="evenodd" d="M164.05 242.813L164.05 96.6226L166.004 96.6226L166.004 242.813L164.05 242.813Z" fill="#E9ECF2"/>
<path opacity="0.1" fill-rule="evenodd" clip-rule="evenodd" d="M146.469 242.813L146.469 96.6226L185.539 96.6226L185.538 242.813L146.469 242.813Z" fill="url(#paint0_linear_266_7741)"/>
</g>
<g clip-path="url(#clip5_266_7741)">
<path d="M119.791 249.236L120.639 249.236L120.639 254.241C120.639 254.688 120.557 255.067 120.393 255.38C120.229 255.692 119.997 255.929 119.699 256.091C119.4 256.253 119.048 256.333 118.642 256.333C118.259 256.333 117.919 256.264 117.62 256.125C117.321 255.984 117.087 255.783 116.916 255.523C116.745 255.263 116.659 254.954 116.659 254.597L117.494 254.597C117.494 254.795 117.543 254.968 117.641 255.116C117.741 255.262 117.878 255.376 118.051 255.458C118.224 255.54 118.421 255.581 118.642 255.581C118.886 255.581 119.094 255.53 119.265 255.427C119.436 255.325 119.565 255.174 119.654 254.976C119.746 254.776 119.791 254.53 119.791 254.241L119.791 249.236ZM125.539 254.091L125.539 250.986L126.345 250.986L126.345 256.238L125.539 256.238L125.539 255.349L125.484 255.349C125.361 255.615 125.169 255.842 124.909 256.029C124.65 256.214 124.321 256.306 123.925 256.306C123.597 256.306 123.305 256.234 123.049 256.091C122.794 255.945 122.594 255.726 122.448 255.434C122.302 255.14 122.229 254.77 122.229 254.323L122.229 250.986L123.036 250.986L123.036 254.268C123.036 254.651 123.143 254.957 123.357 255.185C123.574 255.413 123.85 255.527 124.185 255.527C124.385 255.527 124.589 255.475 124.797 255.373C125.006 255.27 125.182 255.113 125.323 254.901C125.467 254.689 125.539 254.419 125.539 254.091ZM128.63 253.079L128.63 256.238L127.823 256.238L127.823 250.986L128.603 250.986L128.603 251.807L128.671 251.807C128.794 251.54 128.981 251.326 129.232 251.164C129.483 251 129.806 250.918 130.203 250.918C130.559 250.918 130.87 250.991 131.136 251.137C131.403 251.28 131.611 251.499 131.759 251.793C131.907 252.085 131.981 252.454 131.981 252.901L131.981 256.238L131.174 256.238L131.174 252.955C131.174 252.543 131.067 252.221 130.853 251.991C130.638 251.759 130.344 251.643 129.971 251.643C129.713 251.643 129.483 251.698 129.28 251.81C129.079 251.922 128.921 252.085 128.805 252.299C128.688 252.513 128.63 252.773 128.63 253.079Z" fill="#808D9E"/>
<path fill-rule="evenodd" clip-rule="evenodd" d="M125.957 242.813L125.957 96.6226L126.934 96.6226L126.934 242.813L125.957 242.813Z" fill="#E9ECF2"/>
</g>
<g clip-path="url(#clip6_266_7741)">
<path d="M71.3166 249.236L72.3286 249.236L74.7083 255.048L74.7903 255.048L77.17 249.236L78.182 249.236L78.182 256.238L77.3888 256.238L77.3888 250.918L77.3204 250.918L75.1322 256.238L74.3663 256.238L72.1782 250.918L72.1098 250.918L72.1098 256.238L71.3165 256.238L71.3166 249.236ZM81.3181 256.361C80.9854 256.361 80.6833 256.298 80.4121 256.173C80.1408 256.045 79.9254 255.862 79.7659 255.622C79.6063 255.381 79.5266 255.089 79.5266 254.747C79.5266 254.446 79.5858 254.202 79.7043 254.015C79.8229 253.826 79.9813 253.678 80.1796 253.571C80.3779 253.464 80.5967 253.384 80.8361 253.332C81.0777 253.277 81.3204 253.234 81.5643 253.202C81.8834 253.161 82.1421 253.13 82.3404 253.109C82.541 253.087 82.6869 253.049 82.7781 252.996C82.8715 252.944 82.9183 252.853 82.9183 252.723L82.9183 252.696C82.9183 252.358 82.8259 252.096 82.6413 251.909C82.459 251.722 82.182 251.629 81.8105 251.629C81.4253 251.629 81.1233 251.713 80.9044 251.882C80.6856 252.051 80.5318 252.231 80.4429 252.422L79.677 252.149C79.8138 251.829 79.9961 251.581 80.224 251.403C80.4543 251.223 80.705 251.098 80.9762 251.027C81.2498 250.954 81.5187 250.918 81.7831 250.918C81.9518 250.918 82.1456 250.938 82.3644 250.979C82.5855 251.018 82.7986 251.099 83.0037 251.222C83.2112 251.345 83.3833 251.531 83.52 251.779C83.6568 252.028 83.7252 252.361 83.7252 252.778L83.7252 256.238L82.9183 256.238L82.9183 255.527L82.8772 255.527C82.8225 255.641 82.7313 255.762 82.6037 255.892C82.4761 256.022 82.3062 256.133 82.0943 256.224C81.8823 256.315 81.6236 256.361 81.3181 256.361ZM81.4412 255.636C81.7603 255.636 82.0293 255.573 82.2481 255.448C82.4692 255.323 82.6356 255.161 82.7473 254.962C82.8613 254.764 82.9183 254.556 82.9183 254.337L82.9183 253.598C82.8841 253.639 82.8089 253.677 82.6926 253.711C82.5786 253.743 82.4464 253.771 82.296 253.797C82.1478 253.819 82.0031 253.84 81.8618 253.858C81.7227 253.874 81.6099 253.888 81.5233 253.899C81.3136 253.926 81.1176 253.971 80.9352 254.032C80.7551 254.092 80.6093 254.182 80.4976 254.303C80.3882 254.421 80.3335 254.583 80.3335 254.788C80.3335 255.068 80.4372 255.28 80.6446 255.424C80.8543 255.565 81.1198 255.636 81.4412 255.636ZM85.5296 258.207C85.3928 258.207 85.2708 258.196 85.1637 258.173C85.0566 258.152 84.9825 258.132 84.9415 258.111L85.1466 257.4C85.3426 257.45 85.5159 257.469 85.6663 257.455C85.8168 257.441 85.9501 257.374 86.0664 257.253C86.1849 257.135 86.2931 256.942 86.3912 256.675L86.5416 256.265L84.5996 250.986L85.4749 250.986L86.9245 255.171L86.9792 255.171L88.4289 250.986L89.3042 250.986L87.075 257.004C86.9747 257.275 86.8505 257.499 86.7023 257.677C86.5541 257.857 86.382 257.991 86.186 258.077C85.9923 258.164 85.7734 258.207 85.5296 258.207Z" fill="#808D9E"/>
<path fill-rule="evenodd" clip-rule="evenodd" d="M81.0382 242.813L81.0384 96.6226L81.9933 96.6226L81.9931 242.813L81.0382 242.813Z" fill="#E9ECF2"/>
</g>
<g clip-path="url(#clip7_266_7741)">
<path d="M31.8809 239.59L29.6149 245.829L28.6888 245.829L31.298 238.984L31.895 238.984L31.8809 239.59ZM33.7802 245.829L31.5095 239.59L31.4954 238.984L32.0925 238.984L34.711 245.829L33.7802 245.829ZM33.6627 243.295L33.6627 244.038L29.8171 244.038L29.8171 243.295L33.6627 243.295ZM36.4346 241.72L36.4346 247.785L35.5602 247.785L35.5602 240.742L36.3594 240.742L36.4346 241.72ZM39.8618 243.243L39.8618 243.342C39.8618 243.712 39.8179 244.055 39.7302 244.372C39.6424 244.685 39.5139 244.958 39.3447 245.19C39.1786 245.422 38.9733 245.602 38.7288 245.73C38.4844 245.859 38.2038 245.923 37.8873 245.923C37.5645 245.923 37.2793 245.87 37.0317 245.763C36.7841 245.657 36.5741 245.501 36.4017 245.298C36.2293 245.094 36.0914 244.85 35.988 244.564C35.8877 244.279 35.8188 243.958 35.7812 243.601L35.7812 243.074C35.8188 242.698 35.8893 242.361 35.9927 242.063C36.0961 241.766 36.2325 241.512 36.4017 241.302C36.5741 241.089 36.7825 240.927 37.027 240.817C37.2715 240.705 37.5535 240.648 37.8732 240.648C38.1929 240.648 38.4765 240.711 38.7241 240.836C38.9717 240.959 39.1801 241.134 39.3494 241.363C39.5186 241.592 39.6456 241.866 39.7302 242.186C39.8179 242.502 39.8618 242.855 39.8618 243.243ZM38.9874 243.342L38.9874 243.243C38.9874 242.989 38.9607 242.751 38.9075 242.529C38.8542 242.303 38.7711 242.106 38.6583 241.936C38.5486 241.764 38.4076 241.629 38.2352 241.532C38.0628 241.432 37.8575 241.382 37.6193 241.382C37.3999 241.382 37.2088 241.419 37.0458 241.494C36.886 241.57 36.7496 241.672 36.6368 241.8C36.524 241.925 36.4315 242.07 36.3594 242.233C36.2905 242.392 36.2388 242.558 36.2043 242.731L36.2043 243.948C36.267 244.168 36.3547 244.375 36.4675 244.569C36.5804 244.76 36.7308 244.915 36.9189 245.034C37.1069 245.15 37.3435 245.208 37.6287 245.208C37.8638 245.208 38.0659 245.16 38.2352 245.063C38.4076 244.962 38.5486 244.826 38.6583 244.654C38.7711 244.481 38.8542 244.284 38.9075 244.061C38.9607 243.836 38.9874 243.596 38.9874 243.342ZM41.9098 241.541L41.9098 245.829L41.0401 245.829L41.0401 240.742L41.8863 240.742L41.9098 241.541ZM43.4988 240.714L43.4941 241.523C43.422 241.507 43.3531 241.498 43.2872 241.494C43.2246 241.488 43.1525 241.485 43.071 241.485C42.8704 241.485 42.6933 241.516 42.5398 241.579C42.3862 241.642 42.2561 241.73 42.1496 241.842C42.043 241.955 41.9584 242.09 41.8957 242.247C41.8361 242.4 41.797 242.569 41.7782 242.754L41.5337 242.895C41.5337 242.588 41.5635 242.3 41.623 242.03C41.6857 241.761 41.7813 241.523 41.9098 241.316C42.0383 241.106 42.2013 240.943 42.3987 240.827C42.5993 240.708 42.8375 240.648 43.1133 240.648C43.176 240.648 43.2481 240.656 43.3296 240.672C43.411 240.684 43.4675 240.698 43.4988 240.714Z" fill="#92929D"/>
<path fill-rule="evenodd" clip-rule="evenodd" d="M37.0841 242.813L37.0843 96.6226L38.0392 96.6226L38.039 242.813L37.0841 242.813Z" fill="#F1F1F5"/>
</g>
<g filter="url(#filter0_d_266_7741)">
<path d="M172.096 103.112C172.096 97.795 176.406 93.4843 181.724 93.4843L220.131 93.4843C225.448 93.4843 229.759 97.795 229.759 103.112L229.759 114.257C229.759 119.574 225.448 123.885 220.131 123.885L172.096 123.885L172.096 103.112Z" fill="white"/>
</g>
<path d="M199.751 112.396C199.158 112.396 198.631 112.296 198.171 112.097C197.714 111.897 197.355 111.625 197.094 111.279C196.836 110.931 196.709 110.536 196.711 110.094C196.709 109.751 196.783 109.436 196.935 109.149C197.086 108.862 197.291 108.623 197.549 108.431C197.81 108.237 198.1 108.113 198.419 108.06L198.419 108.004C197.999 107.911 197.658 107.697 197.398 107.362C197.14 107.024 197.012 106.635 197.015 106.193C197.012 105.773 197.129 105.398 197.366 105.068C197.602 104.739 197.927 104.479 198.339 104.291C198.751 104.099 199.222 104.003 199.751 104.003C200.275 104.003 200.742 104.099 201.151 104.291C201.563 104.479 201.888 104.739 202.124 105.068C202.364 105.398 202.483 105.773 202.483 106.193C202.483 106.635 202.352 107.024 202.088 107.362C201.828 107.697 201.491 107.911 201.079 108.004L201.079 108.06C201.398 108.113 201.686 108.237 201.941 108.431C202.199 108.623 202.404 108.862 202.555 109.149C202.709 109.436 202.787 109.751 202.787 110.094C202.787 110.536 202.656 110.931 202.396 111.279C202.135 111.625 201.776 111.897 201.319 112.097C200.864 112.296 200.341 112.396 199.751 112.396ZM199.751 111.255C200.057 111.255 200.323 111.203 200.549 111.1C200.775 110.993 200.95 110.844 201.075 110.653C201.2 110.461 201.264 110.241 201.267 109.991C201.264 109.73 201.196 109.5 201.063 109.301C200.933 109.099 200.754 108.94 200.525 108.826C200.299 108.712 200.041 108.654 199.751 108.654C199.458 108.654 199.198 108.712 198.969 108.826C198.74 108.94 198.56 109.099 198.427 109.301C198.296 109.5 198.233 109.73 198.235 109.991C198.233 110.241 198.294 110.461 198.419 110.653C198.544 110.842 198.719 110.989 198.945 111.096C199.174 111.202 199.442 111.255 199.751 111.255ZM199.751 107.534C200.001 107.534 200.222 107.483 200.413 107.382C200.607 107.281 200.76 107.14 200.872 106.959C200.984 106.778 201.041 106.57 201.043 106.333C201.041 106.099 200.985 105.894 200.876 105.719C200.767 105.54 200.615 105.404 200.421 105.308C200.227 105.209 200.004 105.16 199.751 105.16C199.493 105.16 199.266 105.209 199.069 105.308C198.875 105.404 198.723 105.54 198.614 105.719C198.508 105.894 198.456 106.099 198.459 106.333C198.456 106.57 198.509 106.778 198.618 106.959C198.73 107.137 198.883 107.278 199.077 107.382C199.274 107.483 199.498 107.534 199.751 107.534ZM204.098 112.284L204.098 111.215L206.934 108.435C207.205 108.161 207.431 107.918 207.612 107.705C207.793 107.492 207.929 107.286 208.019 107.087C208.109 106.887 208.155 106.675 208.155 106.449C208.155 106.191 208.096 105.97 207.979 105.786C207.862 105.6 207.701 105.457 207.496 105.356C207.292 105.255 207.059 105.204 206.798 105.204C206.53 105.204 206.294 105.26 206.092 105.372C205.89 105.481 205.733 105.636 205.622 105.838C205.513 106.04 205.458 106.281 205.458 106.56L204.05 106.56C204.05 106.042 204.168 105.591 204.405 105.208C204.642 104.825 204.967 104.529 205.382 104.319C205.8 104.108 206.278 104.003 206.818 104.003C207.366 104.003 207.847 104.106 208.262 104.311C208.677 104.515 208.999 104.796 209.228 105.152C209.459 105.509 209.575 105.915 209.575 106.373C209.575 106.679 209.516 106.979 209.399 107.274C209.282 107.569 209.076 107.897 208.781 108.256C208.488 108.615 208.077 109.049 207.548 109.56L206.14 110.992L206.14 111.048L209.698 111.048L209.698 112.284L204.098 112.284ZM214.094 112.44C213.437 112.44 212.873 112.274 212.403 111.941C211.935 111.606 211.574 111.124 211.322 110.493C211.072 109.86 210.947 109.099 210.947 108.208C210.949 107.317 211.076 106.559 211.326 105.934C211.578 105.306 211.939 104.828 212.407 104.498C212.877 104.168 213.44 104.003 214.094 104.003C214.748 104.003 215.311 104.168 215.781 104.498C216.252 104.828 216.612 105.306 216.862 105.934C217.115 106.562 217.241 107.32 217.241 108.208C217.241 109.101 217.115 109.864 216.862 110.497C216.612 111.128 216.252 111.609 215.781 111.941C215.313 112.274 214.751 112.44 214.094 112.44ZM214.094 111.191C214.605 111.191 215.008 110.94 215.303 110.438C215.601 109.932 215.749 109.189 215.749 108.208C215.749 107.559 215.682 107.014 215.546 106.572C215.41 106.131 215.219 105.798 214.972 105.575C214.724 105.349 214.432 105.236 214.094 105.236C213.586 105.236 213.185 105.489 212.889 105.994C212.594 106.496 212.445 107.234 212.443 108.208C212.44 108.859 212.505 109.407 212.638 109.851C212.774 110.295 212.965 110.63 213.213 110.856C213.46 111.08 213.754 111.191 214.094 111.191Z" fill="#1D1E25"/>
<rect width="8.0086" height="7.99993" rx="1.60468" transform="matrix(1 0 -1.64458e-06 1 180.905 104.798)" fill="#2280FF"/>
<path d="M13.3779 171.963C16.9808 173.442 25.4991 177.565 30.7491 182.224C37.3116 188.048 58.5431 194.427 71.2821 180.56C84.021 166.694 89.8114 161.702 99.0761 161.702C108.341 161.702 114.517 159.76 124.94 145.339C135.363 130.918 138.762 123.951 151.576 123.985C163.964 124.018 170.234 132.582 173.194 137.297L180.142 148.113C182.973 152.642 190.585 160.314 201.728 161.131C212.872 161.948 221.439 157.802 230.326 150.886C238.602 144.445 253.101 137.574 265.454 150.886C275.337 161.535 280.381 165.307 281.667 165.862" stroke="#2280FF" stroke-width="2.40702" stroke-linecap="round"/>
<path d="M-5.84283 177.358C-1.66989 178.436 8.19614 181.439 14.2767 184.832C21.8774 189.074 46.468 193.721 61.2224 183.62C75.9767 173.52 82.6832 169.884 93.4137 169.884C104.144 169.884 111.298 168.47 123.369 157.966C135.441 147.462 139.378 142.387 154.219 142.411C168.567 142.435 175.829 148.674 179.257 152.108L187.305 159.986C190.584 163.285 199.4 168.874 212.306 169.468C225.213 170.063 235.136 167.043 245.428 162.006C255.014 157.315 271.807 152.31 286.114 162.006C297.56 169.763 303.402 172.51 304.893 172.914" stroke="#FF5555" stroke-width="2.40702" stroke-linecap="round"/>
</g>
<rect width="48.02" height="162.4" transform="matrix(1 0 -1.64456e-06 1 20.0078 93.8841)" fill="white"/>
<g clip-path="url(#clip8_266_7741)">
<path d="M32.5039 101.482L32.5039 108.484L31.656 108.484L31.656 102.371L31.615 102.371L29.9054 103.506L29.9054 102.644L31.656 101.482L32.5039 101.482ZM35.3524 106.569L35.3387 105.571L35.5028 105.571L37.8004 103.232L38.7988 103.232L36.3508 105.708L36.2824 105.708L35.3524 106.569ZM34.6002 108.484L34.6002 101.482L35.4071 101.482L35.4071 108.484L34.6002 108.484ZM37.9372 108.484L35.8858 105.886L36.4602 105.325L38.9629 108.484L37.9372 108.484Z" fill="#808D9E"/>
</g>
<g clip-path="url(#clip9_266_7741)">
<path d="M38.206 244.58C37.6909 244.58 37.2521 244.44 36.8897 244.159C36.5273 243.877 36.2503 243.468 36.0588 242.932C35.8674 242.394 35.7717 241.744 35.7717 240.983C35.7717 240.226 35.8674 239.58 36.0589 239.044C36.2526 238.507 36.5307 238.096 36.8931 237.814C37.2578 237.529 37.6954 237.386 38.206 237.386C38.7166 237.386 39.1531 237.529 39.5155 237.814C39.8802 238.096 40.1583 238.507 40.3498 239.044C40.5435 239.58 40.6404 240.226 40.6404 240.983C40.6404 241.744 40.5447 242.394 40.3532 242.932C40.1617 243.468 39.8848 243.877 39.5224 244.159C39.1599 244.44 38.7212 244.58 38.206 244.58ZM38.206 243.828C38.7166 243.828 39.1132 243.582 39.3958 243.089C39.6785 242.597 39.8198 241.895 39.8198 240.983C39.8198 240.377 39.7549 239.86 39.6249 239.434C39.4973 239.008 39.3127 238.683 39.071 238.46C38.8317 238.236 38.5434 238.125 38.206 238.125C37.7 238.125 37.3045 238.374 37.0196 238.873C36.7347 239.37 36.5922 240.074 36.5922 240.983C36.5922 241.589 36.656 242.104 36.7837 242.528C36.9113 242.952 37.0948 243.275 37.3342 243.496C37.5758 243.717 37.8664 243.828 38.206 243.828Z" fill="#808D9E"/>
</g>
<g clip-path="url(#clip10_266_7741)">
<path d="M22.2014 217.284L22.2014 216.669L24.5127 214.139C24.7839 213.842 25.0073 213.585 25.1828 213.366C25.3583 213.145 25.4882 212.937 25.5726 212.744C25.6592 212.548 25.7025 212.343 25.7025 212.128C25.7025 211.882 25.6432 211.669 25.5247 211.489C25.4085 211.309 25.2489 211.17 25.046 211.072C24.8432 210.974 24.6152 210.925 24.3622 210.925C24.0933 210.925 23.8585 210.981 23.6579 211.092C23.4596 211.202 23.3057 211.356 23.1963 211.554C23.0892 211.752 23.0356 211.985 23.0356 212.251L22.2287 212.251C22.2287 211.841 22.3233 211.481 22.5125 211.171C22.7017 210.861 22.9593 210.619 23.2852 210.446C23.6135 210.273 23.9816 210.186 24.3896 210.186C24.7999 210.186 25.1634 210.273 25.4803 210.446C25.7971 210.619 26.0455 210.853 26.2256 211.147C26.4057 211.441 26.4957 211.768 26.4957 212.128C26.4957 212.386 26.449 212.638 26.3555 212.884C26.2644 213.128 26.1048 213.4 25.8769 213.701C25.6512 214 25.3378 214.364 24.9366 214.795L23.3639 216.477L23.3639 216.532L26.6188 216.532L26.6188 217.284L22.2014 217.284ZM30.3836 217.38C29.8684 217.38 29.4297 217.24 29.0672 216.959C28.7048 216.677 28.4279 216.268 28.2364 215.732C28.0449 215.194 27.9492 214.544 27.9492 213.783C27.9492 213.026 28.0449 212.38 28.2364 211.844C28.4302 211.307 28.7082 210.896 29.0707 210.614C29.4354 210.329 29.873 210.186 30.3836 210.186C30.8942 210.186 31.3307 210.329 31.6931 210.614C32.0578 210.896 32.3359 211.307 32.5273 211.844C32.7211 212.38 32.8179 213.026 32.8179 213.783C32.8179 214.544 32.7222 215.194 32.5307 215.732C32.3393 216.268 32.0623 216.677 31.6999 216.959C31.3375 217.24 30.8987 217.38 30.3836 217.38ZM30.3836 216.628C30.8942 216.628 31.2908 216.382 31.5734 215.889C31.856 215.397 31.9974 214.695 31.9974 213.783C31.9974 213.177 31.9324 212.66 31.8025 212.234C31.6748 211.808 31.4902 211.483 31.2486 211.26C31.0093 211.036 30.7209 210.925 30.3836 210.925C29.8776 210.925 29.4821 211.174 29.1972 211.674C28.9122 212.17 28.7698 212.874 28.7698 213.783C28.7698 214.389 28.8336 214.905 28.9612 215.328C29.0889 215.752 29.2724 216.075 29.5117 216.296C29.7533 216.517 30.0439 216.628 30.3836 216.628ZM36.4699 217.38C35.9547 217.38 35.516 217.24 35.1535 216.959C34.7911 216.677 34.5142 216.268 34.3227 215.732C34.1313 215.194 34.0355 214.544 34.0355 213.783C34.0355 213.026 34.1313 212.38 34.3227 211.844C34.5165 211.307 34.7946 210.896 35.157 210.614C35.5217 210.329 35.9593 210.186 36.4699 210.186C36.9805 210.186 37.417 210.329 37.7794 210.614C38.1441 210.896 38.4222 211.307 38.6136 211.844C38.8074 212.38 38.9043 213.026 38.9043 213.783C38.9043 214.544 38.8085 215.194 38.6171 215.732C38.4256 216.268 38.1486 216.677 37.7862 216.959C37.4238 217.24 36.985 217.38 36.4699 217.38ZM36.4699 216.628C36.9805 216.628 37.3771 216.382 37.6597 215.889C37.9424 215.397 38.0837 214.695 38.0837 213.783C38.0837 213.177 38.0187 212.66 37.8888 212.234C37.7612 211.808 37.5765 211.483 37.3349 211.26C37.0956 211.036 36.8072 210.925 36.4699 210.925C35.9639 210.925 35.5684 211.174 35.2835 211.674C34.9986 212.17 34.8561 212.874 34.8561 213.783C34.8561 214.389 34.9199 214.905 35.0476 215.328C35.1752 215.752 35.3587 216.075 35.598 216.296C35.8396 216.517 36.1303 216.628 36.4699 216.628Z" fill="#808D9E"/>
</g>
<g clip-path="url(#clip11_266_7741)">
<path d="M22.0373 188.648L22.0373 187.951L25.1144 183.082L25.6204 183.082L25.6204 184.162L25.2785 184.162L22.9536 187.841L22.9536 187.896L27.0975 187.896L27.0975 188.648L22.0373 188.648ZM25.3332 190.084L25.3332 188.436L25.3332 188.111L25.3332 183.082L26.1401 183.082L26.1401 190.084L25.3332 190.084ZM30.7315 190.18C30.2163 190.18 29.7775 190.04 29.4151 189.759C29.0527 189.477 28.7758 189.068 28.5843 188.532C28.3928 187.994 28.2971 187.344 28.2971 186.583C28.2971 185.826 28.3928 185.18 28.5843 184.644C28.778 184.107 29.0561 183.696 29.4186 183.414C29.7833 183.129 30.2209 182.986 30.7315 182.986C31.2421 182.986 31.6786 183.129 32.041 183.414C32.4057 183.696 32.6838 184.107 32.8752 184.644C33.069 185.18 33.1658 185.826 33.1658 186.583C33.1658 187.344 33.0701 187.994 32.8786 188.532C32.6872 189.068 32.4102 189.477 32.0478 189.759C31.6854 190.04 31.2466 190.18 30.7315 190.18ZM30.7315 189.428C31.242 189.428 31.6387 189.182 31.9213 188.689C32.2039 188.197 32.3453 187.495 32.3453 186.583C32.3453 185.977 32.2803 185.46 32.1504 185.034C32.0227 184.608 31.8381 184.283 31.5965 184.06C31.3572 183.836 31.0688 183.725 30.7315 183.725C30.2255 183.725 29.83 183.974 29.5451 184.473C29.2601 184.97 29.1177 185.674 29.1177 186.583C29.1177 187.189 29.1815 187.705 29.3091 188.128C29.4368 188.552 29.6203 188.875 29.8596 189.096C30.1012 189.317 30.3918 189.428 30.7315 189.428ZM36.8178 190.18C36.3026 190.18 35.8639 190.04 35.5014 189.759C35.139 189.477 34.8621 189.068 34.6706 188.532C34.4791 187.994 34.3834 187.344 34.3834 186.583C34.3834 185.826 34.4791 185.18 34.6706 184.644C34.8644 184.107 35.1424 183.696 35.5049 183.414C35.8696 183.129 36.3072 182.986 36.8178 182.986C37.3284 182.986 37.7649 183.129 38.1273 183.414C38.492 183.696 38.7701 184.107 38.9615 184.644C39.1553 185.18 39.2521 185.826 39.2521 186.583C39.2521 187.344 39.1564 187.994 38.9649 188.532C38.7735 189.068 38.4965 189.477 38.1341 189.759C37.7717 190.04 37.3329 190.18 36.8178 190.18ZM36.8178 189.428C37.3284 189.428 37.725 189.182 38.0076 188.689C38.2902 188.197 38.4316 187.495 38.4316 186.583C38.4316 185.977 38.3666 185.46 38.2367 185.034C38.109 184.608 37.9244 184.283 37.6828 184.06C37.4435 183.836 37.1551 183.725 36.8178 183.725C36.3118 183.725 35.9163 183.974 35.6314 184.473C35.3464 184.97 35.204 185.674 35.204 186.583C35.204 187.189 35.2678 187.705 35.3954 188.128C35.5231 188.552 35.7066 188.875 35.9459 189.096C36.1875 189.317 36.4781 189.428 36.8178 189.428Z" fill="#808D9E"/>
</g>
<g clip-path="url(#clip12_266_7741)">
<path d="M24.5263 162.98C24.2391 162.975 23.9519 162.921 23.6647 162.816C23.3775 162.711 23.1154 162.534 22.8784 162.286C22.6413 162.035 22.451 161.697 22.3074 161.27C22.1638 160.842 22.092 160.304 22.092 159.657C22.092 159.037 22.1501 158.487 22.2664 158.009C22.3826 157.528 22.5513 157.123 22.7724 156.795C22.9935 156.464 23.2602 156.214 23.5724 156.043C23.887 155.872 24.2414 155.786 24.6358 155.786C25.0278 155.786 25.3766 155.865 25.682 156.022C25.9897 156.177 26.2404 156.394 26.4342 156.672C26.6279 156.95 26.7533 157.27 26.8103 157.633L25.976 157.633C25.8985 157.318 25.7481 157.057 25.5247 156.85C25.3013 156.642 25.005 156.538 24.6358 156.538C24.0933 156.538 23.6659 156.774 23.3536 157.246C23.0436 157.718 22.8875 158.38 22.8852 159.233L22.9399 159.233C23.0675 159.039 23.2191 158.874 23.3946 158.737C23.5724 158.598 23.7685 158.491 23.9827 158.415C24.197 158.34 24.4238 158.303 24.6631 158.303C25.0643 158.303 25.4313 158.403 25.764 158.604C26.0968 158.802 26.3635 159.076 26.5641 159.428C26.7647 159.776 26.865 160.176 26.865 160.628C26.865 161.061 26.7681 161.457 26.5744 161.817C26.3806 162.175 26.1082 162.46 25.7572 162.672C25.4085 162.882 24.9982 162.984 24.5263 162.98ZM24.5263 162.228C24.8135 162.228 25.0711 162.156 25.299 162.012C25.5293 161.869 25.7105 161.676 25.8427 161.434C25.9772 161.193 26.0444 160.924 26.0444 160.628C26.0444 160.338 25.9794 160.075 25.8495 159.838C25.7219 159.598 25.5452 159.408 25.3196 159.267C25.0962 159.125 24.8409 159.055 24.5537 159.055C24.3372 159.055 24.1354 159.098 23.9485 159.185C23.7616 159.269 23.5975 159.385 23.4562 159.533C23.3171 159.682 23.2077 159.851 23.1279 160.043C23.0482 160.232 23.0083 160.432 23.0083 160.641C23.0083 160.919 23.0732 161.179 23.2032 161.421C23.3354 161.662 23.5154 161.857 23.7434 162.005C23.9736 162.154 24.2346 162.228 24.5263 162.228ZM30.5622 162.98C30.0471 162.98 29.6083 162.84 29.2459 162.559C28.8835 162.277 28.6065 161.868 28.4151 161.332C28.2236 160.794 28.1279 160.144 28.1279 159.383C28.1279 158.626 28.2236 157.98 28.4151 157.444C28.6088 156.907 28.8869 156.496 29.2493 156.214C29.614 155.929 30.0516 155.786 30.5622 155.786C31.0728 155.786 31.5093 155.929 31.8717 156.214C32.2364 156.496 32.5145 156.907 32.706 157.444C32.8997 157.98 32.9966 158.626 32.9966 159.383C32.9966 160.144 32.9009 160.794 32.7094 161.332C32.5179 161.868 32.241 162.277 31.8786 162.559C31.5161 162.84 31.0774 162.98 30.5622 162.98ZM30.5622 162.228C31.0728 162.228 31.4694 161.982 31.7521 161.489C32.0347 160.997 32.176 160.295 32.176 159.383C32.176 158.777 32.1111 158.26 31.9811 157.834C31.8535 157.408 31.6689 157.083 31.4272 156.86C31.1879 156.636 30.8996 156.525 30.5622 156.525C30.0562 156.525 29.6607 156.774 29.3758 157.274C29.0909 157.77 28.9484 158.474 28.9484 159.383C28.9484 159.989 29.0122 160.505 29.1399 160.928C29.2675 161.352 29.451 161.675 29.6904 161.896C29.932 162.117 30.2226 162.228 30.5622 162.228ZM36.6485 162.98C36.1334 162.98 35.6946 162.84 35.3322 162.559C34.9698 162.277 34.6928 161.868 34.5014 161.332C34.3099 160.794 34.2142 160.144 34.2142 159.383C34.2142 158.626 34.3099 157.98 34.5014 157.444C34.6951 156.907 34.9732 156.496 35.3356 156.214C35.7003 155.929 36.138 155.786 36.6485 155.786C37.1591 155.786 37.5956 155.929 37.958 156.214C38.3227 156.496 38.6008 156.907 38.7923 157.444C38.986 157.98 39.0829 158.626 39.0829 159.383C39.0829 160.144 38.9872 160.794 38.7957 161.332C38.6042 161.868 38.3273 162.277 37.9649 162.559C37.6024 162.84 37.1637 162.98 36.6485 162.98ZM36.6485 162.228C37.1591 162.228 37.5557 161.982 37.8384 161.489C38.121 160.997 38.2623 160.295 38.2623 159.383C38.2623 158.777 38.1974 158.26 38.0674 157.834C37.9398 157.408 37.7552 157.083 37.5136 156.86C37.2742 156.636 36.9859 156.525 36.6485 156.525C36.1425 156.525 35.747 156.774 35.4621 157.274C35.1772 157.77 35.0347 158.474 35.0347 159.383C35.0347 159.989 35.0986 160.505 35.2262 160.928C35.3538 161.352 35.5373 161.675 35.7767 161.896C36.0183 162.117 36.3089 162.228 36.6485 162.228Z" fill="#808D9E"/>
</g>
<g clip-path="url(#clip13_266_7741)">
<path d="M24.4443 135.78C23.9747 135.78 23.5599 135.697 23.1997 135.53C22.8419 135.362 22.5627 135.13 22.3621 134.836C22.1615 134.54 22.0623 134.203 22.0646 133.824C22.0623 133.528 22.1205 133.254 22.239 133.004C22.3575 132.751 22.5194 132.54 22.7245 132.371C22.9319 132.2 23.1633 132.092 23.4186 132.046L23.4186 132.005C23.0835 131.919 22.8168 131.731 22.6185 131.441C22.4202 131.149 22.3222 130.818 22.3245 130.446C22.3222 130.091 22.4122 129.773 22.5946 129.492C22.7769 129.212 23.0277 128.991 23.3468 128.829C23.6682 128.667 24.034 128.586 24.4443 128.586C24.85 128.586 25.2124 128.667 25.5316 128.829C25.8507 128.991 26.1014 129.212 26.2837 129.492C26.4684 129.773 26.5618 130.091 26.5641 130.446C26.5618 130.818 26.4604 131.149 26.2598 131.441C26.0615 131.731 25.7982 131.919 25.47 132.005L25.47 132.046C25.723 132.092 25.951 132.2 26.1538 132.371C26.3567 132.54 26.5185 132.751 26.6393 133.004C26.7601 133.254 26.8217 133.528 26.8239 133.824C26.8217 134.203 26.7191 134.54 26.5162 134.836C26.3156 135.13 26.0364 135.362 25.6786 135.53C25.323 135.697 24.9116 135.78 24.4443 135.78ZM24.4443 135.028C24.7611 135.028 25.0346 134.976 25.2649 134.874C25.4951 134.771 25.6729 134.627 25.7982 134.44C25.9236 134.253 25.9874 134.034 25.9897 133.783C25.9874 133.519 25.919 133.285 25.7846 133.082C25.6501 132.879 25.4666 132.72 25.2341 132.604C25.0039 132.487 24.7406 132.429 24.4443 132.429C24.1457 132.429 23.879 132.487 23.6442 132.604C23.4117 132.72 23.2282 132.879 23.0938 133.082C22.9616 133.285 22.8966 133.519 22.8989 133.783C22.8966 134.034 22.957 134.253 23.0801 134.44C23.2054 134.627 23.3844 134.771 23.6169 134.874C23.8494 134.976 24.1252 135.028 24.4443 135.028ZM24.4443 131.704C24.695 131.704 24.9173 131.654 25.111 131.554C25.307 131.454 25.4609 131.313 25.5726 131.133C25.6843 130.953 25.7413 130.742 25.7435 130.501C25.7413 130.264 25.6854 130.058 25.576 129.882C25.4666 129.704 25.315 129.567 25.1213 129.472C24.9275 129.374 24.7019 129.325 24.4443 129.325C24.1822 129.325 23.9531 129.374 23.7571 129.472C23.561 129.567 23.4095 129.704 23.3023 129.882C23.1952 130.058 23.1428 130.264 23.145 130.501C23.1428 130.742 23.1963 130.953 23.3057 131.133C23.4174 131.313 23.5713 131.454 23.7673 131.554C23.9633 131.654 24.189 131.704 24.4443 131.704ZM30.487 135.78C29.9719 135.78 29.5331 135.64 29.1707 135.359C28.8082 135.077 28.5313 134.668 28.3398 134.132C28.1484 133.594 28.0526 132.944 28.0526 132.183C28.0526 131.426 28.1484 130.78 28.3398 130.244C28.5336 129.706 28.8117 129.296 29.1741 129.014C29.5388 128.729 29.9764 128.586 30.487 128.586C30.9976 128.586 31.4341 128.729 31.7965 129.014C32.1612 129.296 32.4393 129.706 32.6308 130.244C32.8245 130.78 32.9214 131.426 32.9214 132.183C32.9214 132.944 32.8256 133.594 32.6342 134.132C32.4427 134.668 32.1658 135.077 31.8033 135.359C31.4409 135.64 31.0021 135.78 30.487 135.78ZM30.487 135.028C30.9976 135.028 31.3942 134.782 31.6768 134.289C31.9595 133.797 32.1008 133.095 32.1008 132.183C32.1008 131.577 32.0358 131.06 31.9059 130.634C31.7783 130.208 31.5936 129.883 31.352 129.66C31.1127 129.436 30.8244 129.325 30.487 129.325C29.981 129.325 29.5855 129.574 29.3006 130.073C29.0157 130.57 28.8732 131.274 28.8732 132.183C28.8732 132.789 28.937 133.304 29.0647 133.728C29.1923 134.152 29.3758 134.475 29.6151 134.696C29.8568 134.917 30.1474 135.028 30.487 135.028ZM36.5733 135.78C36.0582 135.78 35.6194 135.64 35.257 135.359C34.8946 135.077 34.6176 134.668 34.4261 134.132C34.2347 133.594 34.1389 132.944 34.1389 132.183C34.1389 131.426 34.2347 130.78 34.4261 130.244C34.6199 129.706 34.898 129.296 35.2604 129.014C35.6251 128.729 36.0627 128.586 36.5733 128.586C37.0839 128.586 37.5204 128.729 37.8828 129.014C38.2475 129.296 38.5256 129.706 38.7171 130.244C38.9108 130.78 39.0077 131.426 39.0077 132.183C39.0077 132.944 38.9119 133.594 38.7205 134.132C38.529 134.668 38.2521 135.077 37.8896 135.359C37.5272 135.64 37.0884 135.78 36.5733 135.78ZM36.5733 135.028C37.0839 135.028 37.4805 134.782 37.7631 134.289C38.0458 133.797 38.1871 133.095 38.1871 132.183C38.1871 131.577 38.1221 131.06 37.9922 130.634C37.8646 130.208 37.68 129.883 37.4383 129.66C37.199 129.436 36.9107 129.325 36.5733 129.325C36.0673 129.325 35.6718 129.574 35.3869 130.073C35.102 130.57 34.9595 131.274 34.9595 132.183C34.9595 132.789 35.0233 133.304 35.151 133.728C35.2786 134.152 35.4621 134.475 35.7014 134.696C35.9431 134.917 36.2337 135.028 36.5733 135.028Z" fill="#808D9E"/>
</g>
<g filter="url(#filter1_d_266_7741)">
<rect width="11.2463" height="11.2004" rx="5.60019" transform="matrix(1 0 -1.64456e-06 1 158.26 121.084)" fill="#2280FF"/>
<rect x="0.802337" y="0.802338" width="9.64161" height="9.59571" rx="4.79786" transform="matrix(1 0 -1.64456e-06 1 158.26 121.084)" stroke="white" stroke-width="1.60468"/>
</g>
<rect width="9.80034" height="8.00028" rx="1.60468" transform="matrix(1 0 -1.64457e-06 1 156.228 65.8842)" fill="#FF5555"/>
<path d="M181.43 68.4781L180.441 68.4781C180.382 68.1936 180.28 67.9436 180.134 67.7282C179.99 67.5128 179.815 67.332 179.607 67.1857C179.402 67.0368 179.175 66.9251 178.925 66.8507C178.675 66.7762 178.415 66.739 178.143 66.739C177.649 66.739 177.201 66.864 176.799 67.1139C176.4 67.3639 176.082 67.7322 175.846 68.2189C175.612 68.7055 175.495 69.3025 175.495 70.0099C175.495 70.7172 175.612 71.3142 175.846 71.8009C176.082 72.2875 176.4 72.6558 176.799 72.9058C177.201 73.1558 177.649 73.2808 178.143 73.2808C178.415 73.2808 178.675 73.2435 178.925 73.1691C179.175 73.0946 179.402 72.9843 179.607 72.838C179.815 72.6891 179.99 72.5069 180.134 72.2915C180.28 72.0735 180.382 71.8235 180.441 71.5416L181.43 71.5416C181.356 71.9591 181.22 72.3327 181.023 72.6625C180.826 72.9922 180.582 73.2728 180.289 73.5041C179.997 73.7328 179.668 73.907 179.304 74.0267C178.942 74.1464 178.555 74.2062 178.143 74.2062C177.447 74.2062 176.827 74.036 176.284 73.6956C175.742 73.3552 175.315 72.8712 175.004 72.2436C174.693 71.6161 174.537 70.8715 174.537 70.0099C174.537 69.1483 174.693 68.4037 175.004 67.7761C175.315 67.1485 175.742 66.6645 176.284 66.3241C176.827 65.9837 177.447 65.8135 178.143 65.8135C178.555 65.8135 178.942 65.8734 179.304 65.993C179.668 66.1127 179.997 66.2882 180.289 66.5196C180.582 66.7483 180.826 67.0275 181.023 67.3572C181.22 67.6843 181.356 68.058 181.43 68.4781ZM184.989 74.2221C184.436 74.2221 183.95 74.0905 183.533 73.8272C183.118 73.564 182.794 73.1957 182.56 72.7223C182.328 72.249 182.213 71.6958 182.213 71.0629C182.213 70.4247 182.328 69.8676 182.56 69.3916C182.794 68.9156 183.118 68.5459 183.533 68.2827C183.95 68.0194 184.436 67.8878 184.989 67.8878C185.542 67.8878 186.026 68.0194 186.441 68.2827C186.858 68.5459 187.183 68.9156 187.414 69.3916C187.648 69.8676 187.765 70.4247 187.765 71.0629C187.765 71.6958 187.648 72.249 187.414 72.7223C187.183 73.1957 186.858 73.564 186.441 73.8272C186.026 74.0905 185.542 74.2221 184.989 74.2221ZM184.989 73.3765C185.409 73.3765 185.755 73.2688 186.026 73.0534C186.297 72.838 186.498 72.5548 186.628 72.2038C186.759 71.8527 186.824 71.4725 186.824 71.0629C186.824 70.6534 186.759 70.2718 186.628 69.9181C186.498 69.5644 186.297 69.2786 186.026 69.0605C185.755 68.8424 185.409 68.7334 184.989 68.7334C184.569 68.7334 184.223 68.8424 183.952 69.0605C183.681 69.2786 183.48 69.5644 183.349 69.9181C183.219 70.2718 183.154 70.6534 183.154 71.0629C183.154 71.4725 183.219 71.8527 183.349 72.2038C183.48 72.5548 183.681 72.838 183.952 73.0534C184.223 73.2688 184.569 73.3765 184.989 73.3765ZM188.801 74.0945L188.801 67.9676L189.711 67.9676L189.711 68.9249L189.79 68.9249C189.918 68.5978 190.124 68.3438 190.409 68.163C190.693 67.9795 191.035 67.8878 191.434 67.8878C191.838 67.8878 192.174 67.9795 192.443 68.163C192.714 68.3438 192.926 68.5978 193.077 68.9249L193.141 68.9249C193.298 68.6084 193.533 68.3571 193.847 68.171C194.161 67.9822 194.537 67.8878 194.976 67.8878C195.524 67.8878 195.972 68.0593 196.32 68.4023C196.668 68.7427 196.843 69.2732 196.843 69.9939L196.843 74.0945L195.901 74.0945L195.901 69.9939C195.901 69.5418 195.778 69.2187 195.53 69.0246C195.283 68.8305 194.992 68.7334 194.657 68.7334C194.226 68.7334 193.892 68.8637 193.656 69.1243C193.419 69.3823 193.301 69.7094 193.301 70.1056L193.301 74.0945L192.343 74.0945L192.343 69.8982C192.343 69.5498 192.23 69.2693 192.004 69.0565C191.778 68.8411 191.487 68.7334 191.131 68.7334C190.886 68.7334 190.657 68.7986 190.444 68.9289C190.234 69.0592 190.064 69.24 189.934 69.4714C189.806 69.7001 189.742 69.9647 189.742 70.2652L189.742 74.0945L188.801 74.0945ZM198.163 76.3921L198.163 67.9676L199.072 67.9676L199.072 68.9408L199.184 68.9408C199.253 68.8345 199.349 68.6988 199.471 68.534C199.596 68.3664 199.774 68.2175 200.006 68.0872C200.24 67.9543 200.556 67.8878 200.955 67.8878C201.471 67.8878 201.926 68.0167 202.319 68.2747C202.713 68.5326 203.02 68.8983 203.241 69.3716C203.461 69.845 203.572 70.4034 203.572 71.047C203.572 71.6958 203.461 72.2583 203.241 72.7343C203.02 73.2076 202.714 73.5746 202.323 73.8352C201.932 74.0932 201.481 74.2221 200.971 74.2221C200.577 74.2221 200.262 74.157 200.026 74.0267C199.789 73.8937 199.607 73.7435 199.479 73.5759C199.351 73.4057 199.253 73.2648 199.184 73.1531L199.104 73.1531L199.104 76.3921L198.163 76.3921ZM199.088 71.031C199.088 71.4937 199.156 71.9019 199.292 72.2556C199.427 72.6066 199.625 72.8819 199.886 73.0813C200.147 73.2781 200.466 73.3765 200.843 73.3765C201.237 73.3765 201.565 73.2728 201.828 73.0654C202.094 72.8553 202.294 72.5734 202.427 72.2197C202.562 71.8634 202.63 71.4671 202.63 71.031C202.63 70.6002 202.564 70.212 202.431 69.8663C202.301 69.5179 202.102 69.2427 201.836 69.0406C201.573 68.8358 201.242 68.7334 200.843 68.7334C200.46 68.7334 200.139 68.8305 199.878 69.0246C199.617 69.2161 199.421 69.4847 199.288 69.8304C199.155 70.1734 199.088 70.5736 199.088 71.031ZM207.175 74.2221C206.585 74.2221 206.076 74.0918 205.648 73.8312C205.222 73.568 204.894 73.201 204.662 72.7303C204.434 72.2569 204.319 71.7065 204.319 71.0789C204.319 70.4513 204.434 69.8982 204.662 69.4195C204.894 68.9382 205.215 68.5632 205.628 68.2946C206.042 68.0234 206.526 67.8878 207.08 67.8878C207.399 67.8878 207.714 67.941 208.025 68.0473C208.336 68.1537 208.619 68.3266 208.875 68.5659C209.13 68.8026 209.333 69.1164 209.485 69.5073C209.636 69.8982 209.712 70.3795 209.712 70.9512L209.712 71.3501L204.989 71.3501L204.989 70.5364L208.755 70.5364C208.755 70.1907 208.686 69.8822 208.548 69.611C208.412 69.3397 208.218 69.1257 207.965 68.9688C207.715 68.8119 207.42 68.7334 207.08 68.7334C206.705 68.7334 206.38 68.8265 206.106 69.0126C205.835 69.1961 205.626 69.4355 205.48 69.7306C205.334 70.0258 205.261 70.3423 205.261 70.68L205.261 71.2225C205.261 71.6852 205.34 72.0774 205.5 72.3992C205.662 72.7183 205.887 72.9617 206.174 73.1292C206.461 73.2941 206.795 73.3765 207.175 73.3765C207.423 73.3765 207.646 73.3419 207.845 73.2728C208.048 73.201 208.222 73.0946 208.368 72.9537C208.514 72.8101 208.627 72.6319 208.707 72.4192L209.617 72.6745C209.521 72.9829 209.36 73.2542 209.134 73.4882C208.908 73.7195 208.629 73.9004 208.296 74.0307C207.964 74.1583 207.59 74.2221 207.175 74.2221ZM213.408 67.9676L213.408 68.7653L210.233 68.7653L210.233 67.9676L213.408 67.9676ZM211.158 66.4996L212.099 66.4996L212.099 72.3394C212.099 72.6053 212.138 72.8048 212.215 72.9377C212.295 73.068 212.396 73.1558 212.518 73.201C212.643 73.2435 212.775 73.2648 212.913 73.2648C213.017 73.2648 213.102 73.2595 213.168 73.2489C213.235 73.2356 213.288 73.2249 213.328 73.2169L213.519 74.0626C213.456 74.0865 213.366 74.1105 213.252 74.1344C213.138 74.161 212.993 74.1743 212.817 74.1743C212.551 74.1743 212.291 74.1171 212.036 74.0028C211.783 73.8884 211.573 73.7142 211.405 73.4802C211.24 73.2462 211.158 72.951 211.158 72.5947L211.158 66.4996ZM214.423 74.0945L214.423 67.9676L215.364 67.9676L215.364 74.0945L214.423 74.0945ZM214.901 66.9464C214.718 66.9464 214.56 66.8839 214.427 66.7589C214.296 66.6339 214.231 66.4837 214.231 66.3082C214.231 66.1327 214.296 65.9824 214.427 65.8574C214.56 65.7324 214.718 65.6699 214.901 65.6699C215.085 65.6699 215.242 65.7324 215.372 65.8574C215.505 65.9824 215.571 66.1327 215.571 66.3082C215.571 66.4837 215.505 66.6339 215.372 66.7589C215.242 66.8839 215.085 66.9464 214.901 66.9464ZM219.352 67.9676L219.352 68.7653L216.176 68.7653L216.176 67.9676L219.352 67.9676ZM217.102 66.4996L218.043 66.4996L218.043 72.3394C218.043 72.6053 218.082 72.8048 218.159 72.9377C218.239 73.068 218.34 73.1558 218.462 73.201C218.587 73.2435 218.719 73.2648 218.857 73.2648C218.961 73.2648 219.046 73.2595 219.112 73.2489C219.179 73.2356 219.232 73.2249 219.272 73.2169L219.463 74.0626C219.399 74.0865 219.31 74.1105 219.196 74.1344C219.082 74.161 218.937 74.1743 218.761 74.1743C218.495 74.1743 218.235 74.1171 217.979 74.0028C217.727 73.8884 217.517 73.7142 217.349 73.4802C217.184 73.2462 217.102 72.951 217.102 72.5947L217.102 66.4996ZM222.79 74.2221C222.237 74.2221 221.751 74.0905 221.334 73.8272C220.919 73.564 220.594 73.1957 220.36 72.7223C220.129 72.249 220.013 71.6958 220.013 71.0629C220.013 70.4247 220.129 69.8676 220.36 69.3916C220.595 68.9156 220.919 68.5459 221.334 68.2827C221.751 68.0194 222.237 67.8878 222.79 67.8878C223.343 67.8878 223.827 68.0194 224.242 68.2827C224.659 68.5459 224.984 68.9156 225.215 69.3916C225.449 69.8676 225.566 70.4247 225.566 71.0629C225.566 71.6958 225.449 72.249 225.215 72.7223C224.984 73.1957 224.659 73.564 224.242 73.8272C223.827 74.0905 223.343 74.2221 222.79 74.2221ZM222.79 73.3765C223.21 73.3765 223.556 73.2688 223.827 73.0534C224.098 72.838 224.299 72.5548 224.429 72.2038C224.559 71.8527 224.625 71.4725 224.625 71.0629C224.625 70.6534 224.559 70.2718 224.429 69.9181C224.299 69.5644 224.098 69.2786 223.827 69.0605C223.556 68.8424 223.21 68.7334 222.79 68.7334C222.37 68.7334 222.024 68.8424 221.753 69.0605C221.481 69.2786 221.281 69.5644 221.15 69.9181C221.02 70.2718 220.955 70.6534 220.955 71.0629C220.955 71.4725 221.02 71.8527 221.15 72.2038C221.281 72.5548 221.481 72.838 221.753 73.0534C222.024 73.2688 222.37 73.3765 222.79 73.3765ZM226.602 74.0945L226.602 67.9676L227.511 67.9676L227.511 68.893L227.575 68.893C227.687 68.5898 227.889 68.3438 228.181 68.155C228.474 67.9662 228.804 67.8718 229.171 67.8718C229.24 67.8718 229.326 67.8731 229.43 67.8758C229.534 67.8785 229.612 67.8825 229.665 67.8878L229.665 68.8451C229.633 68.8371 229.56 68.8252 229.446 68.8092C229.334 68.7906 229.216 68.7813 229.091 68.7813C228.793 68.7813 228.527 68.8438 228.293 68.9688C228.062 69.0911 227.878 69.2613 227.743 69.4793C227.61 69.6947 227.543 69.9407 227.543 70.2173L227.543 74.0945L226.602 74.0945Z" fill="#1D1E25"/>
<rect width="9.80034" height="8.00028" rx="1.60468" transform="matrix(1 0 -1.64457e-06 1 20.9873 65.8843)" fill="#2280FF"/>
<path d="M39.6162 65.9252L40.7969 65.9252L43.5732 72.7064L43.6689 72.7064L46.4452 65.9252L47.6259 65.9252L47.6259 74.0945L46.7005 74.0945L46.7005 67.8878L46.6207 67.8878L44.0678 74.0945L43.1743 74.0945L40.6214 67.8878L40.5416 67.8878L40.5416 74.0945L39.6162 74.0945L39.6162 65.9252ZM49.6869 76.3921C49.5273 76.3921 49.385 76.3788 49.26 76.3522C49.1351 76.3283 49.0486 76.3043 49.0008 76.2804L49.2401 75.4507C49.4688 75.5092 49.6709 75.5305 49.8464 75.5145C50.0219 75.4986 50.1775 75.4201 50.3131 75.2792C50.4514 75.1409 50.5777 74.9162 50.6921 74.6051L50.8676 74.1264L48.6019 67.9676L49.6231 67.9676L51.3143 72.85L51.3782 72.85L53.0695 67.9676L54.0906 67.9676L51.4898 74.988C51.3728 75.3045 51.2279 75.5664 51.0551 75.7738C50.8822 75.9839 50.6814 76.1395 50.4527 76.2405C50.2267 76.3416 49.9714 76.3921 49.6869 76.3921ZM57.69 76.3921L57.69 67.9676L58.5995 67.9676L58.5995 68.9408L58.7112 68.9408C58.7803 68.8345 58.8761 68.6988 58.9984 68.534C59.1234 68.3664 59.3015 68.2175 59.5329 68.0872C59.7669 67.9543 60.0834 67.8878 60.4823 67.8878C60.9982 67.8878 61.4529 68.0167 61.8465 68.2747C62.24 68.5326 62.5472 68.8983 62.7679 69.3716C62.9886 69.845 63.099 70.4034 63.099 71.047C63.099 71.6958 62.9886 72.2583 62.7679 72.7343C62.5472 73.2076 62.2414 73.5746 61.8504 73.8352C61.4595 74.0932 61.0088 74.2221 60.4982 74.2221C60.1046 74.2221 59.7895 74.157 59.5528 74.0267C59.3162 73.8937 59.134 73.7435 59.0064 73.5759C58.8787 73.4057 58.7803 73.2648 58.7112 73.1531L58.6314 73.1531L58.6314 76.3921L57.69 76.3921ZM58.6154 71.031C58.6154 71.4937 58.6833 71.9019 58.8189 72.2556C58.9545 72.6066 59.1526 72.8819 59.4132 73.0813C59.6738 73.2781 59.9929 73.3765 60.3706 73.3765C60.7641 73.3765 61.0925 73.2728 61.3558 73.0654C61.6217 72.8553 61.8212 72.5734 61.9542 72.2197C62.0898 71.8634 62.1576 71.4671 62.1576 71.031C62.1576 70.6002 62.0911 70.212 61.9581 69.8663C61.8278 69.5179 61.6297 69.2427 61.3638 69.0406C61.1005 68.8358 60.7695 68.7334 60.3706 68.7334C59.9876 68.7334 59.6659 68.8305 59.4053 69.0246C59.1446 69.2161 58.9479 69.4847 58.8149 69.8304C58.6819 70.1734 58.6154 70.5736 58.6154 71.031ZM64.1338 74.0945L64.1338 67.9676L65.0433 67.9676L65.0433 68.893L65.1071 68.893C65.2188 68.5898 65.4209 68.3438 65.7134 68.155C66.0059 67.9662 66.3357 67.8718 66.7027 67.8718C66.7718 67.8718 66.8582 67.8731 66.9619 67.8758C67.0656 67.8785 67.1441 67.8825 67.1973 67.8878L67.1973 68.8451C67.1654 68.8371 67.0922 68.8252 66.9779 68.8092C66.8662 68.7906 66.7479 68.7813 66.6229 68.7813C66.325 68.7813 66.0591 68.8438 65.8251 68.9688C65.5937 69.0911 65.4103 69.2613 65.2746 69.4793C65.1417 69.6947 65.0752 69.9407 65.0752 70.2173L65.0752 74.0945L64.1338 74.0945ZM70.2146 74.2221C69.6615 74.2221 69.1761 74.0905 68.7586 73.8272C68.3438 73.564 68.0194 73.1957 67.7854 72.7223C67.554 72.249 67.4383 71.6958 67.4383 71.0629C67.4383 70.4247 67.554 69.8676 67.7854 69.3916C68.0194 68.9156 68.3438 68.5459 68.7587 68.2827C69.1762 68.0194 69.6615 67.8878 70.2146 67.8878C70.7677 67.8878 71.2517 68.0194 71.6666 68.2827C72.0841 68.5459 72.4085 68.9156 72.6398 69.3916C72.8739 69.8676 72.9909 70.4247 72.9909 71.0629C72.9909 71.6958 72.8739 72.249 72.6398 72.7223C72.4085 73.1957 72.0841 73.564 71.6665 73.8272C71.2517 74.0905 70.7677 74.2221 70.2146 74.2221ZM70.2146 73.3765C70.6348 73.3765 70.9805 73.2688 71.2517 73.0534C71.5229 72.838 71.7237 72.5548 71.854 72.2038C71.9843 71.8527 72.0495 71.4725 72.0495 71.0629C72.0495 70.6534 71.9843 70.2718 71.854 69.9181C71.7237 69.5644 71.523 69.2786 71.2517 69.0605C70.9805 68.8424 70.6348 68.7334 70.2146 68.7334C69.7944 68.7334 69.4487 68.8424 69.1775 69.0605C68.9062 69.2786 68.7055 69.5644 68.5752 69.9181C68.4449 70.2718 68.3797 70.6534 68.3797 71.0629C68.3797 71.4725 68.4449 71.8527 68.5752 72.2038C68.7055 72.5548 68.9062 72.838 69.1775 73.0534C69.4487 73.2688 69.7944 73.3765 70.2146 73.3765ZM76.3403 74.2221C75.8297 74.2221 75.3789 74.0932 74.988 73.8352C74.5971 73.5746 74.2913 73.2076 74.0706 72.7343C73.8499 72.2583 73.7395 71.6958 73.7395 71.047C73.7395 70.4034 73.8499 69.845 74.0706 69.3716C74.2913 68.8983 74.5984 68.5326 74.992 68.2747C75.3856 68.0167 75.8403 67.8878 76.3562 67.8878C76.7551 67.8878 77.0702 67.9543 77.3016 68.0872C77.5356 68.2175 77.7138 68.3664 77.8361 68.534C77.9611 68.6988 78.0581 68.8345 78.1273 68.9408L78.2071 68.9408L78.2071 65.9252L79.1485 65.9252L79.1484 74.0945L78.239 74.0945L78.239 73.1531L78.1273 73.1531C78.0581 73.2648 77.9597 73.4057 77.8321 73.5759C77.7045 73.7435 77.5223 73.8937 77.2856 74.0267C77.0489 74.157 76.7338 74.2221 76.3403 74.2221ZM76.4679 73.3765C76.8455 73.3765 77.1646 73.2781 77.4252 73.0813C77.6858 72.8819 77.884 72.6066 78.0196 72.2556C78.1552 71.9019 78.223 71.4937 78.223 71.031C78.223 70.5736 78.1565 70.1734 78.0236 69.8304C77.8906 69.4847 77.6938 69.2161 77.4332 69.0246C77.1726 68.8305 76.8508 68.7334 76.4679 68.7334C76.069 68.7334 75.7366 68.8358 75.4707 69.0406C75.2074 69.2427 75.0093 69.5179 74.8763 69.8663C74.746 70.212 74.6809 70.6002 74.6809 71.031C74.6809 71.4671 74.7474 71.8634 74.8803 72.2197C75.0159 72.5734 75.2154 72.8553 75.4787 73.0654C75.7446 73.2728 76.0743 73.3765 76.4679 73.3765ZM84.4634 71.5895L84.4634 67.9676L85.4047 67.9676L85.4047 74.0945L84.4634 74.0945L84.4634 73.0574L84.3995 73.0574C84.2559 73.3685 84.0326 73.6331 83.7294 73.8512C83.4262 74.0666 83.0433 74.1743 82.5806 74.1743C82.1977 74.1743 81.8573 74.0905 81.5594 73.923C81.2616 73.7528 81.0276 73.4975 80.8574 73.1571C80.6872 72.8141 80.6021 72.3819 80.6021 71.8607L80.6021 67.9676L81.5435 67.9676L81.5435 71.7969C81.5435 72.2436 81.6685 72.6 81.9184 72.8659C82.1711 73.1318 82.4928 73.2648 82.8838 73.2648C83.1178 73.2648 83.3558 73.205 83.5978 73.0853C83.8424 72.9656 84.0472 72.7822 84.2121 72.5348C84.3796 72.2875 84.4634 71.9724 84.4634 71.5895ZM89.2168 74.2221C88.6424 74.2221 88.1478 74.0865 87.733 73.8153C87.3181 73.544 86.999 73.1704 86.7756 72.6944C86.5523 72.2184 86.4406 71.6746 86.4406 71.0629C86.4406 70.4407 86.5549 69.8915 86.7836 69.4155C87.015 68.9369 87.3367 68.5632 87.7489 68.2946C88.1638 68.0234 88.6478 67.8878 89.2009 67.8878C89.6317 67.8878 90.0199 67.9676 90.3657 68.1271C90.7114 68.2867 90.9946 68.51 91.2153 68.7972C91.436 69.0844 91.573 69.4195 91.6261 69.8024L90.6848 69.8024C90.613 69.5232 90.4534 69.2759 90.2061 69.0605C89.9614 68.8424 89.6317 68.7334 89.2168 68.7334C88.8499 68.7334 88.5281 68.8292 88.2515 69.0206C87.9776 69.2094 87.7636 69.4767 87.6093 69.8224C87.4577 70.1654 87.382 70.5683 87.382 71.031C87.382 71.5044 87.4564 71.9166 87.6053 72.2676C87.7569 72.6186 87.9696 72.8912 88.2436 73.0853C88.5201 73.2794 88.8445 73.3765 89.2168 73.3765C89.4615 73.3765 89.6835 73.3339 89.883 73.2489C90.0824 73.1638 90.2513 73.0414 90.3896 72.8819C90.5279 72.7223 90.6263 72.5308 90.6848 72.3075L91.6261 72.3075C91.573 72.6691 91.4413 72.9949 91.2312 73.2848C91.0238 73.572 90.7486 73.8006 90.4055 73.9708C90.0651 74.1384 89.6689 74.2221 89.2168 74.2221ZM95.2657 67.9676L95.2657 68.7653L92.0906 68.7653L92.0906 67.9676L95.2657 67.9676ZM93.016 66.4996L93.9574 66.4996L93.9574 72.3394C93.9574 72.6053 93.9959 72.8048 94.073 72.9377C94.1528 73.068 94.2539 73.1558 94.3762 73.201C94.5012 73.2435 94.6328 73.2648 94.7711 73.2648C94.8748 73.2648 94.9599 73.2595 95.0264 73.2489C95.0929 73.2356 95.1461 73.2249 95.1859 73.2169L95.3774 74.0626C95.3136 74.0865 95.2245 74.1105 95.1102 74.1344C94.9958 74.161 94.8509 74.1743 94.6754 74.1743C94.4094 74.1743 94.1488 74.1171 93.8935 74.0028C93.6409 73.8884 93.4308 73.7142 93.2633 73.4802C93.0984 73.2462 93.016 72.951 93.016 72.5947L93.016 66.4996Z" fill="#1D1E25"/>
</g>
<defs>
<filter id="filter0_d_266_7741" x="154.444" y="79.0423" width="92.966" height="65.7031" filterUnits="userSpaceOnUse" color-interpolation-filters="sRGB">
<feFlood flood-opacity="0" result="BackgroundImageFix"/>
<feColorMatrix in="SourceAlpha" type="matrix" values="0 0 0 0 0 0 0 0 0 0 0 0 0 0 0 0 0 0 127 0" result="hardAlpha"/>
<feOffset dy="3.20935"/>
<feGaussianBlur stdDeviation="8.82572"/>
<feComposite in2="hardAlpha" operator="out"/>
<feColorMatrix type="matrix" values="0 0 0 0 0.624722 0 0 0 0 0.6401 0 0 0 0 0.720833 0 0 0 0.25 0"/>
<feBlend mode="multiply" in2="BackgroundImageFix" result="effect1_dropShadow_266_7741"/>
<feBlend mode="normal" in="SourceGraphic" in2="effect1_dropShadow_266_7741" result="shape"/>
</filter>
<filter id="filter1_d_266_7741" x="155.05" y="119.479" width="17.6648" height="17.6191" filterUnits="userSpaceOnUse" color-interpolation-filters="sRGB">
<feFlood flood-opacity="0" result="BackgroundImageFix"/>
<feColorMatrix in="SourceAlpha" type="matrix" values="0 0 0 0 0 0 0 0 0 0 0 0 0 0 0 0 0 0 127 0" result="hardAlpha"/>
<feOffset dy="1.60468"/>
<feGaussianBlur stdDeviation="1.60468"/>
<feColorMatrix type="matrix" values="0 0 0 0 0.268354 0 0 0 0 0.268354 0 0 0 0 0.31049 0 0 0 0.15 0"/>
<feBlend mode="normal" in2="BackgroundImageFix" result="effect1_dropShadow_266_7741"/>
<feBlend mode="normal" in="SourceGraphic" in2="effect1_dropShadow_266_7741" result="shape"/>
</filter>
<linearGradient id="paint0_linear_266_7741" x1="166.004" y1="96.6226" x2="166.004" y2="242.813" gradientUnits="userSpaceOnUse">
<stop stop-color="#2A85FF"/>
<stop offset="1" stop-color="#2A85FF" stop-opacity="0"/>
</linearGradient>
<clipPath id="clip0_266_7741">
<rect width="294" height="208" fill="white" transform="matrix(1 0 -1.64455e-06 1 20.498 53.8842)"/>
</clipPath>
<clipPath id="clip1_266_7741">
<rect width="21.4884" height="164.564" fill="white" transform="matrix(1 0 -1.64458e-06 1 282.236 96.6226)"/>
</clipPath>
<clipPath id="clip2_266_7741">
<rect width="23.4419" height="164.564" fill="white" transform="matrix(1 0 -1.64458e-06 1 239.26 96.6226)"/>
</clipPath>
<clipPath id="clip3_266_7741">
<rect width="24.4186" height="164.564" fill="white" transform="matrix(1 0 -1.64458e-06 1 195.306 96.6226)"/>
</clipPath>
<clipPath id="clip4_266_7741">
<rect width="39.0698" height="164.564" fill="white" transform="matrix(1 0 -1.64458e-06 1 146.469 96.6226)"/>
</clipPath>
<clipPath id="clip5_266_7741">
<rect width="23.4419" height="164.564" fill="white" transform="matrix(1 0 -1.64458e-06 1 113.259 96.6226)"/>
</clipPath>
<clipPath id="clip6_266_7741">
<rect width="26.3721" height="164.564" fill="white" transform="matrix(1 0 -1.64458e-06 1 67.3525 96.6226)"/>
</clipPath>
<clipPath id="clip7_266_7741">
<rect width="22.4651" height="164.564" fill="white" transform="matrix(1 0 -1.64458e-06 1 25.3525 96.6226)"/>
</clipPath>
<clipPath id="clip8_266_7741">
<rect width="13.7192" height="19.1989" fill="white" transform="matrix(1 0 -1.64457e-06 1 28.8271 95.4841)"/>
</clipPath>
<clipPath id="clip9_266_7741">
<rect width="8.81948" height="19.1989" fill="white" transform="matrix(1 0 -1.64457e-06 1 34.707 231.484)"/>
</clipPath>
<clipPath id="clip10_266_7741">
<rect width="23.5186" height="19.1989" fill="white" transform="matrix(1 0 -1.64457e-06 1 20.0068 204.284)"/>
</clipPath>
<clipPath id="clip11_266_7741">
<rect width="23.5186" height="19.1989" fill="white" transform="matrix(1 0 -1.64457e-06 1 20.0068 177.084)"/>
</clipPath>
<clipPath id="clip12_266_7741">
<rect width="23.5186" height="19.1989" fill="white" transform="matrix(1 0 -1.64457e-06 1 20.0068 149.884)"/>
</clipPath>
<clipPath id="clip13_266_7741">
<rect width="23.5186" height="19.1989" fill="white" transform="matrix(1 0 -1.64457e-06 1 20.0068 122.684)"/>
</clipPath>
</defs>
</svg>
