<svg width="335" height="96" viewBox="0 0 335 96" fill="none" xmlns="http://www.w3.org/2000/svg">
<rect width="335" height="95.7499" rx="6" fill="black"/>
<path d="M27.1928 52.7262L27.1928 38.1494L28.1267 38.1494L28.1267 52.7262L27.1928 52.7262ZM29.6698 42.9609C29.6242 42.5015 29.4287 42.1447 29.0833 41.8904C28.7378 41.636 28.269 41.5089 27.6768 41.5089C27.2745 41.5089 26.9347 41.5658 26.6576 41.6797C26.3805 41.7898 26.1679 41.9435 26.0199 42.1409C25.8756 42.3383 25.8035 42.5623 25.8035 42.8128C25.7959 43.0216 25.8395 43.2038 25.9344 43.3595C26.0331 43.5151 26.1679 43.6499 26.3387 43.7637C26.5095 43.8738 26.7069 43.9706 26.9309 44.0541C27.1549 44.1338 27.394 44.2022 27.6484 44.2591L28.6961 44.5097C29.2047 44.6235 29.6717 44.7754 30.0968 44.9652C30.522 45.155 30.8902 45.3884 31.2015 45.6656C31.5128 45.9427 31.7538 46.2691 31.9246 46.6449C32.0992 47.0208 32.1885 47.4516 32.1923 47.9375C32.1885 48.6512 32.0062 49.2699 31.6456 49.7938C31.2888 50.3138 30.7725 50.7181 30.0968 51.0066C29.4249 51.2913 28.6145 51.4337 27.6654 51.4337C26.724 51.4337 25.9041 51.2894 25.2056 51.0009C24.5109 50.7124 23.9681 50.2854 23.5771 49.7198C23.1899 49.1503 22.9868 48.4462 22.9678 47.6072L25.3536 47.6072C25.3802 47.9982 25.4922 48.3247 25.6896 48.5866C25.8908 48.8448 26.1584 49.0403 26.4925 49.1731C26.8303 49.3022 27.2118 49.3667 27.637 49.3667C28.0545 49.3667 28.4171 49.306 28.7245 49.1845C29.0358 49.063 29.2769 48.8941 29.4477 48.6777C29.6185 48.4614 29.7039 48.2127 29.7039 47.9318C29.7039 47.6699 29.6261 47.4497 29.4705 47.2713C29.3186 47.0929 29.0947 46.941 28.7986 46.8158C28.5063 46.6905 28.1475 46.5766 27.7224 46.4741L26.4526 46.1553C25.4694 45.9161 24.6931 45.5422 24.1237 45.0335C23.5543 44.5248 23.2715 43.8397 23.2753 42.9779C23.2715 42.2719 23.4594 41.655 23.839 41.1274C24.2224 40.5997 24.7482 40.1878 25.4163 39.8917C26.0844 39.5957 26.8436 39.4476 27.6939 39.4476C28.5594 39.4476 29.3148 39.5957 29.9602 39.8917C30.6093 40.1878 31.1142 40.5997 31.4748 41.1274C31.8354 41.655 32.0214 42.2662 32.0328 42.9609L29.6698 42.9609ZM38.0928 51.428C37.2424 51.428 36.4851 51.2818 35.8208 50.9895C35.1603 50.6935 34.6383 50.2873 34.2549 49.771C33.8753 49.2509 33.6798 48.6512 33.6684 47.9717L36.1511 47.9717C36.1663 48.2564 36.2593 48.5069 36.4301 48.7233C36.6047 48.9359 36.8363 49.101 37.1248 49.2187C37.4133 49.3364 37.7378 49.3952 38.0985 49.3952C38.4743 49.3952 38.8064 49.3288 39.0949 49.1959C39.3834 49.063 39.6093 48.8789 39.7725 48.6436C39.9358 48.4082 40.0174 48.1368 40.0174 47.8293C40.0174 47.518 39.9301 47.2428 39.7554 47.0037C39.5846 46.7607 39.3379 46.5709 39.0152 46.4343C38.6963 46.2976 38.3167 46.2293 37.8764 46.2293L36.7888 46.2293L36.7888 44.4186L37.8764 44.4186C38.2484 44.4186 38.5768 44.354 38.8615 44.225C39.15 44.0959 39.3739 43.9175 39.5334 43.6897C39.6928 43.4581 39.7725 43.1886 39.7725 42.8811C39.7725 42.5889 39.7023 42.3326 39.5618 42.1124C39.4252 41.8885 39.2316 41.7139 38.981 41.5886C38.7343 41.4633 38.4458 41.4007 38.1155 41.4007C37.7815 41.4007 37.4759 41.4614 37.1988 41.5829C36.9217 41.7006 36.6996 41.8695 36.5326 42.0897C36.3656 42.3098 36.2763 42.568 36.265 42.8641L33.9019 42.8641C33.9133 42.1922 34.105 41.6 34.477 41.0875C34.849 40.575 35.3501 40.1746 35.9803 39.8861C36.6142 39.5938 37.3298 39.4476 38.1269 39.4476C38.9317 39.4476 39.6359 39.5938 40.2394 39.8861C40.843 40.1783 41.3118 40.5731 41.6459 41.0704C41.9837 41.5639 42.1508 42.1181 42.147 42.7331C42.1508 43.386 41.9477 43.9308 41.5377 44.3673C41.1315 44.8039 40.602 45.081 39.949 45.1986L39.949 45.2898C40.807 45.3998 41.4599 45.6978 41.9078 46.1837C42.3595 46.6658 42.5835 47.2694 42.5797 47.9944C42.5835 48.6588 42.3918 49.249 42.0046 49.7653C41.6212 50.2816 41.0917 50.6878 40.416 50.9838C39.7403 51.2799 38.9659 51.428 38.0928 51.428ZM49.4254 39.607L49.4254 51.2686L46.9599 51.2686L46.9599 41.9473L46.8916 41.9473L44.221 43.6214L44.221 41.4348L47.1079 39.607L49.4254 39.607ZM54.2298 49.6742L54.1672 50.3006C54.1179 50.8016 54.023 51.3008 53.8825 51.7981C53.7458 52.2992 53.6016 52.7528 53.4497 53.159C53.3017 53.5652 53.1821 53.884 53.091 54.1156L51.5194 54.1156C51.5764 53.8916 51.6542 53.5785 51.7529 53.1761C51.8516 52.7775 51.9446 52.3296 52.0319 51.8323C52.1192 51.335 52.1743 50.8282 52.197 50.3119L52.2255 49.6742L54.2298 49.6742ZM60.5275 51.5248C59.5481 51.521 58.7054 51.2799 57.9993 50.8016C57.2971 50.3233 56.7561 49.6306 56.3765 48.7233C56.0007 47.816 55.8147 46.7247 55.8185 45.4492C55.8185 44.1775 56.0064 43.0937 56.3822 42.1979C56.7618 41.302 57.3028 40.6206 58.005 40.1537C58.7111 39.683 59.5519 39.4476 60.5275 39.4476C61.5031 39.4476 62.342 39.683 63.0443 40.1537C63.7504 40.6244 64.2932 41.3077 64.6728 42.2035C65.0524 43.0956 65.2403 44.1775 65.2365 45.4492C65.2365 46.7285 65.0467 47.8217 64.6671 48.729C64.2913 49.6362 63.7523 50.329 63.05 50.8073C62.3477 51.2856 61.5069 51.5248 60.5275 51.5248ZM60.5275 49.4806C61.1956 49.4806 61.729 49.1447 62.1276 48.4728C62.5261 47.8008 62.7235 46.793 62.7197 45.4492C62.7197 44.5647 62.6286 43.8283 62.4464 43.2399C62.268 42.6515 62.0137 42.2092 61.6834 41.9131C61.357 41.6171 60.9717 41.469 60.5275 41.469C59.8632 41.469 59.3318 41.8012 58.9332 42.4655C58.5346 43.1298 58.3334 44.1244 58.3296 45.4492C58.3296 46.3451 58.4188 47.0929 58.5972 47.6927C58.7794 48.2886 59.0357 48.7366 59.3659 49.0365C59.6962 49.3326 60.0834 49.4806 60.5275 49.4806ZM71.2139 39.4476C71.8137 39.4476 72.3907 39.5482 72.9449 39.7494C73.5029 39.9506 74.0002 40.2714 74.4368 40.7117C74.8771 41.152 75.2245 41.7366 75.4788 42.4655C75.7369 43.1905 75.8679 44.0807 75.8717 45.136C75.8717 46.1268 75.7597 47.0113 75.5357 47.7895C75.3156 48.5639 74.9986 49.2225 74.5848 49.7653C74.171 50.3082 73.6719 50.7219 73.0873 51.0066C72.5027 51.2875 71.8498 51.428 71.1285 51.428C70.3503 51.428 69.6632 51.278 69.0672 50.9782C68.4713 50.6745 67.9911 50.2626 67.6266 49.7425C67.266 49.2187 67.0477 48.6303 66.9718 47.9774L69.4032 47.9774C69.4981 48.4025 69.6974 48.7328 70.0011 48.9681C70.3048 49.1997 70.6806 49.3155 71.1285 49.3155C71.8877 49.3155 72.4647 48.9852 72.8595 48.3247C73.2543 47.6604 73.4536 46.7512 73.4574 45.5972L73.3777 45.5972C73.2031 45.9389 72.9677 46.2331 72.6716 46.4798C72.3755 46.7228 72.0358 46.9107 71.6524 47.0435C71.2728 47.1764 70.8685 47.2428 70.4395 47.2428C69.7524 47.2428 69.1394 47.0815 68.6003 46.7588C68.0613 46.4362 67.6361 45.992 67.3248 45.4264C67.0136 44.8608 66.8579 44.2155 66.8579 43.4904C66.8541 42.7084 67.0344 42.0118 67.3989 41.4007C67.7633 40.7895 68.272 40.3112 68.9249 39.9658C69.5816 39.6165 70.3446 39.4438 71.2139 39.4476ZM71.231 41.3836C70.8476 41.3836 70.5059 41.4747 70.2061 41.6569C69.91 41.8391 69.6746 42.084 69.5 42.3915C69.3292 42.6989 69.2457 43.0425 69.2494 43.4221C69.2494 43.8055 69.333 44.1509 69.5 44.4584C69.6708 44.7621 69.9024 45.005 70.1947 45.1873C70.4908 45.3657 70.8286 45.4549 71.2082 45.4549C71.4929 45.4549 71.7568 45.4017 71.9997 45.2954C72.2426 45.1892 72.4533 45.043 72.6317 44.857C72.814 44.6672 72.9563 44.4489 73.0588 44.2022C73.1613 43.9554 73.2125 43.6935 73.2125 43.4164C73.2087 43.0482 73.1214 42.7103 72.9506 42.4028C72.7798 42.0954 72.5444 41.8486 72.2445 41.6626C71.9447 41.4766 71.6068 41.3836 71.231 41.3836ZM77.5799 51.2686L77.5799 49.492L81.7309 45.6485C82.0839 45.3068 82.38 44.9994 82.6192 44.726C82.8621 44.4527 83.0463 44.1851 83.1715 43.9232C83.2968 43.6574 83.3594 43.3708 83.3594 43.0634C83.3594 42.7217 83.2816 42.4275 83.126 42.1808C82.9703 41.9302 82.7578 41.7385 82.4882 41.6057C82.2187 41.469 81.9131 41.4007 81.5715 41.4007C81.2147 41.4007 80.9034 41.4728 80.6376 41.6171C80.3719 41.7613 80.1669 41.9682 80.0227 42.2377C79.8784 42.5072 79.8063 42.828 79.8063 43.2L77.466 43.2C77.466 42.437 77.6388 41.7746 77.9842 41.2128C78.3296 40.651 78.8136 40.2163 79.4362 39.9088C80.0588 39.6013 80.7762 39.4476 81.5886 39.4476C82.4237 39.4476 83.1506 39.5957 83.7694 39.8917C84.392 40.184 84.876 40.5902 85.2214 41.1103C85.5668 41.6303 85.7396 42.2263 85.7396 42.8982C85.7396 43.3386 85.6523 43.7732 85.4776 44.2022C85.3068 44.6311 85.0012 45.1075 84.5609 45.6314C84.1205 46.1515 83.4999 46.7759 82.6989 47.5048L80.9964 49.1731L80.9964 49.2528L85.8933 49.2528L85.8933 51.2686L77.5799 51.2686Z" fill="white"/>
<path d="M70.8324 68.593L70.8324 69.3901L67.5321 69.3901L67.5321 68.593L70.8324 68.593ZM68.5206 74.7153L68.5206 67.748C68.5206 67.3972 68.603 67.1049 68.7677 66.8711C68.9325 66.6372 69.1464 66.4619 69.4094 66.3449C69.6725 66.228 69.9502 66.1696 70.2425 66.1696C70.4737 66.1696 70.6623 66.1882 70.8085 66.2254C70.9546 66.2626 71.0636 66.2971 71.1353 66.329L70.8643 67.1421C70.8165 67.1262 70.75 67.1062 70.665 67.0823C70.5826 67.0584 70.4737 67.0465 70.3381 67.0465C70.0273 67.0465 69.8027 67.1248 69.6645 67.2816C69.529 67.4384 69.4613 67.6683 69.4613 67.9712L69.4613 74.7153L68.5206 74.7153ZM71.7499 74.7153L71.7499 68.593L72.6586 68.593L72.6586 69.5177L72.7224 69.5177C72.834 69.2148 73.036 68.969 73.3283 68.7803C73.6206 68.5916 73.9501 68.4973 74.3168 68.4973C74.3858 68.4973 74.4722 68.4986 74.5758 68.5013C74.6795 68.504 74.7579 68.5079 74.811 68.5133L74.811 69.4699C74.7791 69.4619 74.706 69.4499 74.5918 69.434C74.4802 69.4154 74.3619 69.4061 74.237 69.4061C73.9394 69.4061 73.6737 69.4685 73.4399 69.5934C73.2087 69.7157 73.0253 69.8857 72.8898 70.1036C72.757 70.3189 72.6905 70.5647 72.6905 70.841L72.6905 74.7153L71.7499 74.7153ZM77.826 74.8428C77.2733 74.8428 76.7884 74.7113 76.3712 74.4482C75.9567 74.1852 75.6325 73.8171 75.3986 73.3441C75.1675 72.8711 75.0519 72.3184 75.0519 71.686C75.0519 71.0483 75.1675 70.4916 75.3986 70.0159C75.6325 69.5403 75.9567 69.1709 76.3712 68.9079C76.7884 68.6448 77.2733 68.5133 77.826 68.5133C78.3787 68.5133 78.8624 68.6448 79.2769 68.9079C79.6941 69.1709 80.0183 69.5403 80.2494 70.0159C80.4833 70.4916 80.6002 71.0483 80.6002 71.686C80.6002 72.3184 80.4833 72.8711 80.2494 73.3441C80.0183 73.8171 79.6941 74.1852 79.2769 74.4482C78.8624 74.7113 78.3787 74.8428 77.826 74.8428ZM77.826 73.9978C78.2459 73.9978 78.5913 73.8902 78.8624 73.675C79.1334 73.4597 79.334 73.1767 79.4642 72.826C79.5944 72.4752 79.6595 72.0952 79.6595 71.686C79.6595 71.2768 79.5944 70.8955 79.4642 70.5421C79.334 70.1887 79.1334 69.903 78.8624 69.6851C78.5913 69.4672 78.2459 69.3583 77.826 69.3583C77.4062 69.3583 77.0607 69.4672 76.7897 69.6851C76.5187 69.903 76.318 70.1887 76.1878 70.5421C76.0576 70.8955 75.9925 71.2768 75.9925 71.686C75.9925 72.0952 76.0576 72.4752 76.1878 72.826C76.318 73.1767 76.5187 73.4597 76.7897 73.675C77.0607 73.8902 77.4062 73.9978 77.826 73.9978ZM81.6352 74.7153L81.6352 68.593L82.544 68.593L82.544 69.5496L82.6237 69.5496C82.7513 69.2227 82.9572 68.969 83.2415 68.7883C83.5259 68.6049 83.8673 68.5133 84.2659 68.5133C84.6698 68.5133 85.006 68.6049 85.2743 68.7883C85.5454 68.969 85.7566 69.2227 85.9081 69.5496L85.9719 69.5496C86.1286 69.2334 86.3638 68.9823 86.6774 68.7963C86.9909 68.6076 87.3669 68.5133 87.8054 68.5133C88.3528 68.5133 88.8005 68.6847 89.1486 69.0274C89.4967 69.3676 89.6708 69.8977 89.6708 70.6178L89.6707 74.7153L88.7301 74.7153L88.7301 70.6178C88.7301 70.1661 88.6065 69.8432 88.3594 69.6492C88.1123 69.4553 87.8213 69.3583 87.4865 69.3583C87.056 69.3583 86.7225 69.4885 86.486 69.7489C86.2495 70.0066 86.1313 70.3335 86.1313 70.7294L86.1313 74.7153L85.1747 74.7153L85.1747 70.5221C85.1747 70.174 85.0618 69.8937 84.8359 69.6811C84.61 69.4659 84.3191 69.3583 83.963 69.3583C83.7185 69.3583 83.49 69.4234 83.2774 69.5536C83.0675 69.6838 82.8974 69.8645 82.7672 70.0956C82.6397 70.3242 82.5759 70.5886 82.5759 70.8888L82.5759 74.7153L81.6352 74.7153ZM94.6864 66.5522L94.6864 74.7153L93.7457 74.7153L93.7457 66.5522L94.6864 66.5522ZM97.81 74.8588C97.4221 74.8588 97.07 74.7857 96.7538 74.6395C96.4376 74.4907 96.1865 74.2768 96.0005 73.9978C95.8144 73.7161 95.7214 73.376 95.7214 72.9774C95.7214 72.6267 95.7905 72.3424 95.9287 72.1245C96.0669 71.9039 96.2516 71.7312 96.4827 71.6063C96.7139 71.4814 96.969 71.3884 97.248 71.3273C97.5297 71.2635 97.8127 71.213 98.097 71.1758C98.469 71.128 98.7706 71.0921 99.0018 71.0682C99.2356 71.0416 99.4057 70.9978 99.512 70.9367C99.6209 70.8756 99.6754 70.7693 99.6754 70.6178L99.6754 70.5859C99.6754 70.1926 99.5678 69.8871 99.3526 69.6692C99.14 69.4513 98.8171 69.3423 98.384 69.3423C97.9349 69.3423 97.5828 69.4406 97.3277 69.6373C97.0727 69.8339 96.8933 70.0438 96.7897 70.267L95.8968 69.9482C96.0563 69.5762 96.2688 69.2865 96.5346 69.0793C96.8029 68.8693 97.0952 68.7232 97.4115 68.6408C97.7303 68.5558 98.0439 68.5133 98.3521 68.5133C98.5488 68.5133 98.7746 68.5372 99.0297 68.585C99.2875 68.6302 99.5359 68.7245 99.7751 68.868C100.017 69.0115 100.218 69.2281 100.377 69.5177C100.536 69.8073 100.616 70.1953 100.616 70.6816L100.616 74.7153L99.6754 74.7153L99.6754 73.8862L99.6276 73.8862C99.5638 74.0191 99.4575 74.1612 99.3087 74.3127C99.1599 74.4642 98.962 74.593 98.7148 74.6993C98.4677 74.8056 98.1661 74.8588 97.81 74.8588ZM97.9535 74.0138C98.3255 74.0138 98.6391 73.9407 98.8942 73.7945C99.1519 73.6484 99.3459 73.4597 99.4761 73.2285C99.609 72.9974 99.6754 72.7542 99.6754 72.4991L99.6754 71.6382C99.6356 71.686 99.5479 71.7299 99.4124 71.7697C99.2795 71.8069 99.1254 71.8401 98.95 71.8694C98.7773 71.8959 98.6085 71.9198 98.4438 71.9411C98.2817 71.9597 98.1502 71.9757 98.0492 71.9889C97.8047 72.0208 97.5762 72.0726 97.3636 72.1444C97.1537 72.2135 96.9836 72.3184 96.8534 72.4593C96.7259 72.5974 96.6621 72.7861 96.6621 73.0253C96.6621 73.3521 96.783 73.5992 97.0248 73.7666C97.2693 73.9314 97.5789 74.0138 97.9535 74.0138ZM106.269 69.9641L105.424 70.2033C105.371 70.0624 105.292 69.9256 105.189 69.7927C105.088 69.6572 104.949 69.5456 104.774 69.4579C104.599 69.3702 104.374 69.3264 104.1 69.3264C103.726 69.3264 103.414 69.4127 103.164 69.5855C102.917 69.7555 102.793 69.9721 102.793 70.2352C102.793 70.469 102.878 70.6537 103.048 70.7892C103.218 70.9247 103.484 71.0376 103.845 71.128L104.754 71.3512C105.302 71.4841 105.709 71.6873 105.978 71.961C106.246 72.2321 106.38 72.5815 106.38 73.0093C106.38 73.3601 106.279 73.6736 106.077 73.95C105.878 74.2263 105.599 74.4442 105.24 74.6037C104.882 74.7631 104.464 74.8428 103.989 74.8428C103.364 74.8428 102.848 74.7073 102.438 74.4363C102.029 74.1652 101.77 73.7693 101.661 73.2485L102.554 73.0253C102.639 73.3548 102.8 73.6019 103.036 73.7666C103.275 73.9314 103.588 74.0138 103.973 74.0138C104.411 74.0138 104.759 73.9208 105.017 73.7347C105.278 73.5461 105.408 73.3202 105.408 73.0571C105.408 72.8446 105.333 72.6665 105.185 72.523C105.036 72.3769 104.807 72.2679 104.499 72.1962L103.479 71.957C102.918 71.8242 102.506 71.6183 102.243 71.3392C101.983 71.0576 101.852 70.7055 101.852 70.283C101.852 69.9375 101.949 69.632 102.143 69.3662C102.34 69.1005 102.607 68.8919 102.945 68.7405C103.285 68.589 103.67 68.5133 104.1 68.5133C104.706 68.5133 105.182 68.6461 105.527 68.9118C105.875 69.1776 106.123 69.5283 106.269 69.9641ZM110.058 68.593L110.058 69.3901L106.885 69.3901L106.885 68.593L110.058 68.593ZM107.81 67.1262L108.751 67.1262L108.751 72.9615C108.751 73.2272 108.789 73.4265 108.866 73.5594C108.946 73.6896 109.047 73.7773 109.169 73.8224C109.294 73.865 109.426 73.8862 109.564 73.8862C109.667 73.8862 109.752 73.8809 109.819 73.8703C109.885 73.857 109.938 73.8464 109.978 73.8384L110.17 74.6834C110.106 74.7073 110.017 74.7312 109.903 74.7551C109.788 74.7817 109.644 74.795 109.468 74.795C109.202 74.795 108.942 74.7379 108.687 74.6236C108.434 74.5093 108.225 74.3353 108.057 74.1014C107.892 73.8676 107.81 73.5727 107.81 73.2166L107.81 67.1262ZM114.434 77.0111C114.275 77.0111 114.132 76.9978 114.007 76.9713C113.883 76.9474 113.796 76.9234 113.748 76.8995L113.988 76.0705C114.216 76.1289 114.418 76.1502 114.593 76.1342C114.769 76.1183 114.924 76.0399 115.06 75.8991C115.198 75.7609 115.324 75.5364 115.438 75.2255L115.614 74.7472L113.35 68.593L114.37 68.593L116.06 73.4717L116.124 73.4717L117.814 68.593L118.834 68.593L116.236 75.6081C116.119 75.9243 115.974 76.1861 115.801 76.3933C115.628 76.6032 115.428 76.7587 115.199 76.8597C114.973 76.9606 114.718 77.0111 114.434 77.0111ZM122.023 74.8428C121.433 74.8428 120.924 74.7126 120.496 74.4522C120.071 74.1891 119.743 73.8224 119.512 73.3521C119.283 72.8791 119.169 72.3291 119.169 71.702C119.169 71.0748 119.283 70.5221 119.512 70.0438C119.743 69.5629 120.064 69.1882 120.476 68.9198C120.891 68.6488 121.374 68.5133 121.927 68.5133C122.246 68.5133 122.561 68.5664 122.872 68.6727C123.183 68.779 123.466 68.9517 123.721 69.1909C123.976 69.4274 124.179 69.7409 124.331 70.1315C124.482 70.5221 124.558 71.0031 124.558 71.5744L124.558 71.973L119.839 71.973L119.839 71.1599L123.601 71.1599C123.601 70.8144 123.532 70.5062 123.394 70.2352C123.258 69.9641 123.064 69.7502 122.812 69.5934C122.562 69.4367 122.267 69.3583 121.927 69.3583C121.552 69.3583 121.228 69.4513 120.955 69.6373C120.684 69.8206 120.475 70.0598 120.329 70.3547C120.183 70.6497 120.11 70.9659 120.11 71.3034L120.11 71.8454C120.11 72.3078 120.189 72.6997 120.349 73.0213C120.511 73.3401 120.735 73.5833 121.022 73.7507C121.309 73.9154 121.643 73.9978 122.023 73.9978C122.27 73.9978 122.493 73.9633 122.692 73.8942C122.894 73.8224 123.068 73.7161 123.215 73.5753C123.361 73.4318 123.474 73.2538 123.553 73.0412L124.462 73.2963C124.366 73.6045 124.206 73.8756 123.98 74.1094C123.754 74.3406 123.475 74.5213 123.143 74.6515C122.811 74.779 122.437 74.8428 122.023 74.8428ZM127.389 74.8588C127.001 74.8588 126.649 74.7857 126.333 74.6395C126.017 74.4907 125.766 74.2768 125.58 73.9978C125.394 73.7161 125.301 73.376 125.301 72.9774C125.301 72.6267 125.37 72.3424 125.508 72.1245C125.646 71.9039 125.831 71.7312 126.062 71.6063C126.293 71.4814 126.548 71.3884 126.827 71.3273C127.109 71.2635 127.392 71.213 127.676 71.1758C128.048 71.128 128.35 71.0921 128.581 71.0682C128.815 71.0416 128.985 70.9978 129.091 70.9367C129.2 70.8756 129.255 70.7693 129.255 70.6178L129.255 70.5859C129.255 70.1926 129.147 69.8871 128.932 69.6692C128.719 69.4513 128.397 69.3423 127.963 69.3423C127.514 69.3423 127.162 69.4406 126.907 69.6373C126.652 69.8339 126.473 70.0438 126.369 70.267L125.476 69.9482C125.636 69.5762 125.848 69.2865 126.114 69.0793C126.382 68.8693 126.675 68.7232 126.991 68.6408C127.31 68.5558 127.623 68.5133 127.932 68.5133C128.128 68.5133 128.354 68.5372 128.609 68.585C128.867 68.6302 129.115 68.7245 129.354 68.868C129.596 69.0115 129.797 69.2281 129.956 69.5177C130.116 69.8073 130.196 70.1953 130.196 70.6816L130.196 74.7153L129.255 74.7153L129.255 73.8862L129.207 73.8862C129.143 74.0191 129.037 74.1612 128.888 74.3127C128.739 74.4642 128.541 74.593 128.294 74.6993C128.047 74.8056 127.746 74.8588 127.389 74.8588ZM127.533 74.0138C127.905 74.0138 128.219 73.9407 128.474 73.7945C128.731 73.6484 128.925 73.4597 129.056 73.2285C129.188 72.9974 129.255 72.7542 129.255 72.4991L129.255 71.6382C129.215 71.686 129.127 71.7299 128.992 71.7697C128.859 71.8069 128.705 71.8401 128.529 71.8694C128.357 71.8959 128.188 71.9198 128.023 71.9411C127.861 71.9597 127.73 71.9757 127.629 71.9889C127.384 72.0208 127.156 72.0726 126.943 72.1444C126.733 72.2135 126.563 72.3184 126.433 72.4593C126.305 72.5974 126.242 72.7861 126.242 73.0253C126.242 73.3521 126.362 73.5992 126.604 73.7666C126.849 73.9314 127.158 74.0138 127.533 74.0138ZM131.512 74.7153L131.512 68.593L132.42 68.593L132.42 69.5177L132.484 69.5177C132.596 69.2148 132.798 68.969 133.09 68.7803C133.382 68.5916 133.712 68.4973 134.078 68.4973C134.148 68.4973 134.234 68.4986 134.338 68.5013C134.441 68.504 134.52 68.5079 134.573 68.5133L134.573 69.4699C134.541 69.4619 134.468 69.4499 134.353 69.434C134.242 69.4154 134.124 69.4061 133.999 69.4061C133.701 69.4061 133.435 69.4685 133.202 69.5934C132.97 69.7157 132.787 69.8857 132.652 70.1036C132.519 70.3189 132.452 70.5647 132.452 70.841L132.452 74.7153L131.512 74.7153Z" fill="#5C616E"/>
<path d="M35.741 73.0018L35.741 71.826L39.2048 66.3534L40.1853 66.3534L40.1853 68.0274L39.5874 68.0274L37.2557 71.7223L37.2557 71.7861L42.0905 71.7861L42.0905 73.0018L35.741 73.0018ZM39.6352 74.5164L39.6352 72.6431L39.6512 72.1169L39.6512 66.3534L41.0462 66.3534L41.0462 74.5164L39.6352 74.5164ZM44.0386 74.6041C43.7968 74.6041 43.5895 74.5191 43.4168 74.349C43.2441 74.1789 43.1591 73.9717 43.1617 73.7272C43.1591 73.4881 43.2441 73.2835 43.4168 73.1134C43.5895 72.9433 43.7968 72.8583 44.0386 72.8583C44.2725 72.8583 44.4757 72.9433 44.6485 73.1134C44.8238 73.2835 44.9128 73.4881 44.9155 73.7272C44.9128 73.8893 44.8703 74.0368 44.788 74.1696C44.7082 74.3025 44.602 74.4088 44.4691 74.4885C44.3389 74.5656 44.1954 74.6041 44.0386 74.6041ZM46.3893 74.5164L46.3893 73.4482L49.2232 70.6701C49.4943 70.3964 49.7201 70.1532 49.9008 69.9406C50.0815 69.7281 50.217 69.5221 50.3074 69.3228C50.3977 69.1235 50.4429 68.911 50.4429 68.6851C50.4429 68.4273 50.3845 68.2068 50.2675 68.0234C50.1506 67.8374 49.9899 67.6939 49.7852 67.593C49.5806 67.492 49.3481 67.4415 49.0877 67.4415C48.8193 67.4415 48.5842 67.4973 48.3822 67.6089C48.1803 67.7179 48.0235 67.8733 47.9119 68.0753C47.8029 68.2772 47.7485 68.5177 47.7485 68.7967L46.3415 68.7967C46.3415 68.2785 46.4597 67.8281 46.6962 67.4455C46.9327 67.0628 47.2582 66.7666 47.6727 66.5566C48.0899 66.3467 48.5682 66.2418 49.1076 66.2418C49.655 66.2418 50.136 66.3441 50.5505 66.5487C50.9651 66.7533 51.2866 67.0336 51.5151 67.3897C51.7463 67.7458 51.8619 68.1523 51.8619 68.6094C51.8619 68.9149 51.8034 69.2152 51.6865 69.5102C51.5696 69.8051 51.3636 70.132 51.0687 70.4907C50.7764 70.8494 50.3659 71.2839 49.8371 71.7941L48.43 73.225L48.43 73.2808L51.9854 73.2808L51.9854 74.5164L46.3893 74.5164ZM57.7251 72.9858L57.7251 72.5554C57.7251 72.2392 57.7915 71.9482 57.9244 71.6825C58.0599 71.4167 58.2565 71.2028 58.5143 71.0407C58.772 70.8786 59.0843 70.7976 59.451 70.7976C59.8283 70.7976 60.1445 70.8786 60.3996 71.0407C60.6547 71.2002 60.8474 71.4128 60.9776 71.6785C61.1104 71.9442 61.1769 72.2365 61.1769 72.5554L61.1769 72.9858C61.1769 73.3021 61.1104 73.593 60.9776 73.8588C60.8447 74.1245 60.6494 74.3384 60.3916 74.5005C60.1365 74.6626 59.823 74.7436 59.451 74.7436C59.079 74.7436 58.7641 74.6626 58.5063 74.5005C58.2486 74.3384 58.0533 74.1245 57.9204 73.8588C57.7902 73.593 57.7251 73.3021 57.7251 72.9858ZM58.7654 72.5554L58.7654 72.9858C58.7654 73.1958 58.8159 73.3884 58.9169 73.5638C59.0178 73.7392 59.1959 73.8269 59.451 73.8269C59.7087 73.8269 59.8854 73.7405 59.9811 73.5678C60.0794 73.3924 60.1286 73.1984 60.1286 72.9858L60.1286 72.5554C60.1286 72.3428 60.0821 72.1488 59.9891 71.9734C59.8961 71.7954 59.7167 71.7064 59.451 71.7064C59.2012 71.7064 59.0245 71.7954 58.9209 71.9734C58.8172 72.1488 58.7654 72.3428 58.7654 72.5554ZM53.5758 68.3144L53.5758 67.8839C53.5758 67.5651 53.6436 67.2728 53.7791 67.007C53.9146 66.7413 54.1112 66.5287 54.369 66.3693C54.6267 66.2072 54.939 66.1262 55.3057 66.1262C55.6803 66.1262 55.9952 66.2072 56.2503 66.3693C56.5081 66.5287 56.7021 66.7413 56.8323 67.007C56.9625 67.2728 57.0276 67.5651 57.0276 67.8839L57.0276 68.3144C57.0276 68.6333 56.9611 68.9256 56.8283 69.1913C56.6981 69.4544 56.5041 69.6656 56.2463 69.8251C55.9886 69.9845 55.675 70.0642 55.3057 70.0642C54.931 70.0642 54.6148 69.9845 54.357 69.8251C54.1019 69.6656 53.908 69.453 53.7751 69.1873C53.6422 68.9216 53.5758 68.6306 53.5758 68.3144ZM54.6241 67.8839L54.6241 68.3144C54.6241 68.527 54.6732 68.721 54.7716 68.8963C54.8725 69.0691 55.0506 69.1554 55.3057 69.1554C55.5608 69.1554 55.7361 69.0691 55.8318 68.8963C55.9301 68.721 55.9793 68.527 55.9793 68.3144L55.9793 67.8839C55.9793 67.6714 55.9328 67.4774 55.8398 67.302C55.7468 67.124 55.5687 67.0349 55.3057 67.0349C55.0532 67.0349 54.8765 67.124 54.7756 67.302C54.6746 67.48 54.6241 67.674 54.6241 67.8839ZM54.0302 74.5164L59.6423 66.3534L60.6388 66.3534L55.0267 74.5164L54.0302 74.5164Z" fill="#60D39C"/>
<path d="M24.1338 69.9312L27.1403 66.9247L30.1468 69.9312" stroke="#60D39C" stroke-width="1.60346" stroke-linecap="round" stroke-linejoin="round"/>
<path d="M27.1406 74.1403L27.1406 66.9248" stroke="#60D39C" stroke-width="1.60346" stroke-linecap="round"/>
<path d="M27.8342 22.1156C27.797 21.7675 27.6403 21.4964 27.3639 21.3024C27.0902 21.1085 26.7341 21.0115 26.2957 21.0115C25.9875 21.0115 25.7231 21.058 25.5025 21.151C25.282 21.244 25.1132 21.3702 24.9963 21.5296C24.8794 21.6891 24.8196 21.8711 24.8169 22.0757C24.8169 22.2458 24.8555 22.3932 24.9325 22.5181C25.0122 22.643 25.1199 22.7493 25.2554 22.837C25.3909 22.922 25.541 22.9938 25.7058 23.0522C25.8705 23.1107 26.0366 23.1599 26.204 23.1997L26.9693 23.391C27.2775 23.4628 27.5738 23.5598 27.8582 23.682C28.1451 23.8042 28.4016 23.9584 28.6274 24.1444C28.856 24.3304 29.0366 24.5549 29.1695 24.818C29.3024 25.081 29.3688 25.3893 29.3688 25.7427C29.3688 26.221 29.2466 26.6422 29.0021 27.0062C28.7576 27.3676 28.4042 27.6506 27.9419 27.8552C27.4822 28.0572 26.9255 28.1581 26.2718 28.1581C25.6367 28.1581 25.0853 28.0598 24.6176 27.8632C24.1526 27.6665 23.7886 27.3796 23.5255 27.0022C23.2651 26.6249 23.1243 26.1652 23.103 25.6231L24.5579 25.6231C24.5791 25.9075 24.6668 26.1439 24.8209 26.3326C24.975 26.5213 25.1757 26.6621 25.4228 26.7551C25.6726 26.8481 25.9516 26.8946 26.2598 26.8946C26.5813 26.8946 26.863 26.8468 27.1048 26.7511C27.3493 26.6528 27.5406 26.5173 27.6788 26.3446C27.817 26.1692 27.8874 25.9646 27.89 25.7307C27.8874 25.5182 27.8249 25.3428 27.7027 25.2046C27.5805 25.0638 27.4091 24.9469 27.1885 24.8539C26.9706 24.7582 26.7155 24.6732 26.4232 24.5988L25.4945 24.3596C24.8223 24.1869 24.2908 23.9251 23.9002 23.5744C23.5122 23.221 23.3183 22.752 23.3183 22.1674C23.3183 21.6864 23.4485 21.2652 23.7089 20.9039C23.9719 20.5425 24.3293 20.2621 24.7811 20.0628C25.2328 19.8609 25.7443 19.7599 26.3156 19.7599C26.8949 19.7599 27.4024 19.8609 27.8382 20.0628C28.2767 20.2621 28.6208 20.5398 28.8706 20.8959C29.1203 21.2493 29.2492 21.6559 29.2572 22.1156L27.8342 22.1156ZM32.3851 28.1581C31.9971 28.1581 31.6477 28.089 31.3368 27.9509C31.0286 27.81 30.7841 27.6028 30.6034 27.3291C30.4254 27.0554 30.3364 26.7179 30.3364 26.3167C30.3364 25.9712 30.4001 25.6856 30.5277 25.4597C30.6552 25.2338 30.8293 25.0531 31.0498 24.9176C31.2704 24.7821 31.5188 24.6798 31.7952 24.6107C32.0742 24.539 32.3625 24.4872 32.6601 24.4553C33.0189 24.4181 33.3098 24.3848 33.533 24.3556C33.7562 24.3237 33.9183 24.2759 34.0193 24.2121C34.1229 24.1457 34.1748 24.0434 34.1748 23.9052L34.1748 23.8813C34.1748 23.581 34.0857 23.3485 33.9077 23.1838C33.7297 23.019 33.4732 22.9367 33.1384 22.9367C32.785 22.9367 32.5047 23.0137 32.2974 23.1678C32.0928 23.322 31.9546 23.504 31.8829 23.7139L30.5357 23.5226C30.642 23.1506 30.8173 22.8397 31.0618 22.5899C31.3063 22.3374 31.6052 22.1488 31.9586 22.0239C32.312 21.8963 32.7026 21.8326 33.1305 21.8326C33.4254 21.8326 33.719 21.8671 34.0113 21.9362C34.3036 22.0053 34.5707 22.1195 34.8125 22.279C35.0543 22.4358 35.2483 22.6497 35.3944 22.9207C35.5432 23.1917 35.6176 23.5305 35.6176 23.9371L35.6176 28.0346L34.2306 28.0346L34.2306 27.1936L34.1827 27.1936C34.095 27.3636 33.9715 27.5231 33.812 27.6719C33.6553 27.818 33.4573 27.9363 33.2182 28.0266C32.9817 28.1143 32.704 28.1581 32.3851 28.1581ZM32.7598 27.0979C33.0494 27.0979 33.3005 27.0408 33.5131 26.9265C33.7257 26.8096 33.8891 26.6555 34.0034 26.4641C34.1203 26.2728 34.1787 26.0642 34.1787 25.8384L34.1787 25.1169C34.1336 25.1541 34.0565 25.1887 33.9476 25.2206C33.8413 25.2524 33.7217 25.2803 33.5888 25.3043C33.456 25.3282 33.3244 25.3494 33.1942 25.368C33.064 25.3866 32.9511 25.4026 32.8554 25.4159C32.6402 25.4451 32.4476 25.4929 32.2775 25.5594C32.1074 25.6258 31.9732 25.7188 31.8749 25.8384C31.7766 25.9553 31.7274 26.1067 31.7274 26.2928C31.7274 26.5585 31.8244 26.7591 32.0184 26.8946C32.2124 27.0301 32.4595 27.0979 32.7598 27.0979ZM38.5114 19.8715L38.5114 28.0346L37.0685 28.0346L37.0685 19.8715L38.5114 19.8715ZM42.7055 28.1542C42.0917 28.1542 41.5616 28.0266 41.1152 27.7715C40.6714 27.5138 40.3299 27.1497 40.0908 26.6794C39.8516 26.2064 39.7321 25.6497 39.7321 25.0093C39.7321 24.3795 39.8516 23.8268 40.0908 23.3512C40.3326 22.8729 40.6701 22.5009 41.1032 22.2351C41.5363 21.9668 42.0452 21.8326 42.6298 21.8326C43.0071 21.8326 43.3632 21.8937 43.698 22.0159C44.0355 22.1355 44.3331 22.3215 44.5908 22.5739C44.8512 22.8264 45.0559 23.1479 45.2047 23.5385C45.3535 23.9265 45.4279 24.3888 45.4279 24.9256L45.4279 25.368L40.4097 25.368L40.4097 24.3955L44.0448 24.3955C44.0421 24.1191 43.9823 23.8733 43.8654 23.6581C43.7485 23.4402 43.5851 23.2688 43.3751 23.1439C43.1679 23.019 42.9261 22.9566 42.6497 22.9566C42.3548 22.9566 42.0957 23.0283 41.8725 23.1718C41.6493 23.3127 41.4752 23.4987 41.3503 23.7298C41.2281 23.9584 41.1656 24.2095 41.163 24.4832L41.163 25.3322C41.163 25.6882 41.2281 25.9938 41.3583 26.2489C41.4885 26.5013 41.6705 26.6953 41.9044 26.8308C42.1382 26.9637 42.4119 27.0301 42.7254 27.0301C42.9354 27.0301 43.1254 27.0009 43.2954 26.9424C43.4655 26.8813 43.613 26.7923 43.7379 26.6754C43.8627 26.5585 43.9571 26.4137 44.0209 26.2409L45.3681 26.3924C45.283 26.7485 45.121 27.0594 44.8818 27.3251C44.6453 27.5882 44.3424 27.7928 43.973 27.9389C43.6037 28.0824 43.1812 28.1542 42.7055 28.1542ZM51.4874 23.5305L50.172 23.674C50.1348 23.5412 50.0697 23.4163 49.9767 23.2994C49.8864 23.1824 49.7642 23.0881 49.61 23.0164C49.4559 22.9446 49.2673 22.9087 49.044 22.9087C48.7438 22.9087 48.4913 22.9739 48.2867 23.1041C48.0848 23.2343 47.9851 23.403 47.9878 23.6103C47.9851 23.7883 48.0502 23.9331 48.1831 24.0447C48.3186 24.1563 48.5418 24.248 48.8527 24.3197L49.897 24.543C50.4763 24.6678 50.9068 24.8658 51.1884 25.1368C51.4728 25.4079 51.6163 25.7626 51.6189 26.2011C51.6163 26.5864 51.5033 26.9265 51.2801 27.2215C51.0596 27.5138 50.7527 27.7423 50.3594 27.907C49.9661 28.0718 49.5144 28.1542 49.0042 28.1542C48.2548 28.1542 47.6516 27.9974 47.1946 27.6838C46.7376 27.3676 46.4652 26.9278 46.3775 26.3645L47.7845 26.229C47.8483 26.5053 47.9838 26.7139 48.1911 26.8548C48.3983 26.9956 48.668 27.066 49.0002 27.066C49.343 27.066 49.618 26.9956 49.8253 26.8548C50.0352 26.7139 50.1402 26.5399 50.1402 26.3326C50.1402 26.1572 50.0724 26.0124 49.9369 25.8982C49.804 25.7839 49.5968 25.6962 49.3151 25.6351L48.2708 25.4159C47.6835 25.2936 47.2491 25.0877 46.9674 24.7981C46.6857 24.5058 46.5462 24.1364 46.5489 23.69C46.5462 23.3127 46.6485 22.9858 46.8558 22.7095C47.0657 22.4304 47.3567 22.2152 47.7287 22.0637C48.1034 21.9096 48.5352 21.8326 49.0241 21.8326C49.7416 21.8326 50.3062 21.9854 50.7181 22.2909C51.1326 22.5965 51.3891 23.0097 51.4874 23.5305Z" fill="#5C616F"/>
<path d="M204.281 52.7263L204.281 38.1494L205.215 38.1494L205.215 52.7263L204.281 52.7263ZM206.758 42.9609C206.712 42.5016 206.517 42.1448 206.171 41.8904C205.826 41.6361 205.357 41.5089 204.765 41.5089C204.362 41.5089 204.023 41.5659 203.745 41.6798C203.468 41.7898 203.256 41.9436 203.108 42.141C202.963 42.3384 202.891 42.5623 202.891 42.8129C202.884 43.0217 202.927 43.2039 203.022 43.3595C203.121 43.5152 203.256 43.6499 203.427 43.7638C203.597 43.8739 203.795 43.9707 204.019 44.0542C204.243 44.1339 204.482 44.2022 204.736 44.2592L205.784 44.5097C206.293 44.6236 206.76 44.7754 207.185 44.9652C207.61 45.1551 207.978 45.3885 208.289 45.6656C208.601 45.9427 208.842 46.2692 209.013 46.645C209.187 47.0208 209.276 47.4517 209.28 47.9376C209.276 48.6512 209.094 49.27 208.734 49.7938C208.377 50.3139 207.86 50.7182 207.185 51.0067C206.513 51.2914 205.702 51.4337 204.753 51.4337C203.812 51.4337 202.992 51.2895 202.293 51.001C201.599 50.7125 201.056 50.2854 200.665 49.7198C200.278 49.1504 200.075 48.4462 200.056 47.6073L202.442 47.6073C202.468 47.9983 202.58 48.3248 202.777 48.5867C202.979 48.8448 203.246 49.0403 203.58 49.1732C203.918 49.3023 204.3 49.3668 204.725 49.3668C205.142 49.3668 205.505 49.306 205.812 49.1846C206.124 49.0631 206.365 48.8942 206.536 48.6778C206.706 48.4614 206.792 48.2128 206.792 47.9319C206.792 47.6699 206.714 47.4498 206.558 47.2714C206.407 47.0929 206.183 46.9411 205.886 46.8158C205.594 46.6906 205.235 46.5767 204.81 46.4742L203.54 46.1553C202.557 45.9162 201.781 45.5423 201.212 45.0336C200.642 44.5249 200.359 43.8397 200.363 42.978C200.359 42.2719 200.547 41.6551 200.927 41.1274C201.31 40.5998 201.836 40.1879 202.504 39.8918C203.172 39.5957 203.931 39.4477 204.782 39.4477C205.647 39.4477 206.403 39.5957 207.048 39.8918C207.697 40.1879 208.202 40.5998 208.563 41.1274C208.923 41.6551 209.109 42.2662 209.121 42.9609L206.758 42.9609ZM210.87 51.2686L210.87 49.4921L215.021 45.6485C215.374 45.3069 215.67 44.9994 215.909 44.7261C216.152 44.4528 216.337 44.1852 216.462 43.9232C216.587 43.6575 216.65 43.3709 216.65 43.0634C216.65 42.7218 216.572 42.4276 216.416 42.1808C216.261 41.9303 216.048 41.7386 215.779 41.6057C215.509 41.4691 215.203 41.4007 214.862 41.4007C214.505 41.4007 214.194 41.4729 213.928 41.6171C213.662 41.7614 213.457 41.9683 213.313 42.2378C213.169 42.5073 213.097 42.8281 213.097 43.2001L210.756 43.2001C210.756 42.4371 210.929 41.7747 211.275 41.2128C211.62 40.651 212.104 40.2164 212.726 39.9089C213.349 39.6014 214.067 39.4477 214.879 39.4477C215.714 39.4477 216.441 39.5957 217.06 39.8918C217.682 40.1841 218.166 40.5903 218.512 41.1103C218.857 41.6304 219.03 42.2264 219.03 42.8983C219.03 43.3386 218.943 43.7733 218.768 44.2022C218.597 44.6312 218.292 45.1076 217.851 45.6315C217.411 46.1515 216.79 46.776 215.989 47.5048L214.287 49.1732L214.287 49.2529L219.184 49.2529L219.184 51.2686L210.87 51.2686ZM225.189 39.4477C225.789 39.4477 226.366 39.5483 226.92 39.7495C227.478 39.9506 227.976 40.2714 228.412 40.7118C228.853 41.1521 229.2 41.7367 229.454 42.4655C229.712 43.1906 229.843 44.0808 229.847 45.1361C229.847 46.1268 229.735 47.0113 229.511 47.7895C229.291 48.5639 228.974 49.2225 228.56 49.7654C228.147 50.3082 227.647 50.722 227.063 51.0067C226.478 51.2876 225.825 51.4281 225.104 51.4281C224.326 51.4281 223.639 51.2781 223.043 50.9782C222.447 50.6745 221.967 50.2627 221.602 49.7426C221.242 49.2187 221.023 48.6303 220.947 47.9774L223.379 47.9774C223.474 48.4026 223.673 48.7328 223.977 48.9682C224.28 49.1998 224.656 49.3155 225.104 49.3155C225.863 49.3155 226.44 48.9853 226.835 48.3248C227.23 47.6605 227.429 46.7513 227.433 45.5973L227.353 45.5973C227.179 45.9389 226.943 46.2331 226.647 46.4799C226.351 46.7228 226.011 46.9107 225.628 47.0436C225.248 47.1765 224.844 47.2429 224.415 47.2429C223.728 47.2429 223.115 47.0816 222.576 46.7589C222.037 46.4362 221.612 45.9921 221.3 45.4265C220.989 44.8609 220.833 44.2155 220.833 43.4905C220.83 42.7085 221.01 42.0119 221.374 41.4007C221.739 40.7896 222.248 40.3113 222.9 39.9658C223.557 39.6166 224.32 39.4439 225.189 39.4477ZM225.207 41.3837C224.823 41.3837 224.481 41.4748 224.182 41.657C223.886 41.8392 223.65 42.084 223.476 42.3915C223.305 42.699 223.221 43.0425 223.225 43.4221C223.225 43.8056 223.309 44.151 223.476 44.4585C223.646 44.7622 223.878 45.0051 224.17 45.1873C224.466 45.3657 224.804 45.4549 225.184 45.4549C225.468 45.4549 225.732 45.4018 225.975 45.2955C226.218 45.1892 226.429 45.0431 226.607 44.8571C226.789 44.6673 226.932 44.449 227.034 44.2022C227.137 43.9555 227.188 43.6936 227.188 43.4165C227.184 43.0482 227.097 42.7104 226.926 42.4029C226.755 42.0954 226.52 41.8487 226.22 41.6627C225.92 41.4767 225.582 41.3837 225.207 41.3837ZM233.745 49.6743L233.682 50.3006C233.633 50.8017 233.538 51.3009 233.397 51.7982C233.261 52.2992 233.117 52.7529 232.965 53.1591C232.817 53.5652 232.697 53.8841 232.606 54.1157L231.034 54.1157C231.091 53.8917 231.169 53.5785 231.268 53.1761C231.367 52.7776 231.46 52.3296 231.547 51.8323C231.634 51.335 231.689 50.8283 231.712 50.312L231.741 49.6743L233.745 49.6743ZM239.557 39.6071L239.557 51.2686L237.092 51.2686L237.092 41.9474L237.023 41.9474L234.353 43.6214L234.353 41.4349L237.24 39.6071L239.557 39.6071ZM242.329 51.2686L242.329 49.4921L246.48 45.6485C246.833 45.3069 247.129 44.9994 247.368 44.7261C247.611 44.4528 247.795 44.1852 247.92 43.9232C248.046 43.6575 248.108 43.3709 248.108 43.0634C248.108 42.7218 248.03 42.4276 247.875 42.1808C247.719 41.9303 247.507 41.7386 247.237 41.6057C246.967 41.4691 246.662 41.4007 246.32 41.4007C245.963 41.4007 245.652 41.4729 245.386 41.6171C245.121 41.7614 244.916 41.9683 244.771 42.2378C244.627 42.5073 244.555 42.8281 244.555 43.2001L242.215 43.2001C242.215 42.4371 242.388 41.7747 242.733 41.2128C243.078 40.651 243.562 40.2164 244.185 39.9089C244.808 39.6014 245.525 39.4477 246.337 39.4477C247.172 39.4477 247.899 39.5957 248.518 39.8918C249.141 40.1841 249.625 40.5903 249.97 41.1103C250.316 41.6304 250.488 42.2264 250.488 42.8983C250.488 43.3386 250.401 43.7733 250.226 44.2022C250.056 44.6312 249.75 45.1076 249.31 45.6315C248.869 46.1515 248.249 46.776 247.448 47.5048L245.745 49.1732L245.745 49.2529L250.642 49.2529L250.642 51.2686L242.329 51.2686ZM256.779 51.4281C255.902 51.4281 255.122 51.2857 254.439 51.001C253.759 50.7125 253.226 50.3196 252.839 49.8223C252.451 49.325 252.258 48.7613 252.258 48.1312C252.258 47.6453 252.368 47.1992 252.588 46.7931C252.812 46.3831 253.116 46.0433 253.499 45.7738C253.882 45.5005 254.311 45.3259 254.786 45.25L254.786 45.1702C254.163 45.045 253.659 44.7432 253.271 44.2649C252.884 43.7828 252.691 43.2229 252.691 42.5851C252.691 41.9815 252.867 41.4444 253.22 40.9737C253.573 40.4992 254.057 40.1272 254.672 39.8576C255.291 39.5843 255.993 39.4477 256.779 39.4477C257.565 39.4477 258.265 39.5843 258.88 39.8576C259.499 40.131 259.985 40.5049 260.338 40.9794C260.691 41.4501 260.869 41.9853 260.873 42.5851C260.869 43.2267 260.672 43.7866 260.281 44.2649C259.89 44.7432 259.389 45.045 258.778 45.1702L258.778 45.25C259.244 45.3259 259.668 45.5005 260.047 45.7738C260.431 46.0433 260.734 46.3831 260.958 46.7931C261.186 47.1992 261.302 47.6453 261.306 48.1312C261.302 48.7613 261.106 49.325 260.719 49.8223C260.332 50.3196 259.797 50.7125 259.113 51.001C258.434 51.2857 257.656 51.4281 256.779 51.4281ZM256.779 49.6173C257.17 49.6173 257.512 49.5471 257.804 49.4066C258.096 49.2624 258.324 49.065 258.487 48.8145C258.654 48.5601 258.738 48.2678 258.738 47.9376C258.738 47.5997 258.652 47.3017 258.481 47.0436C258.311 46.7817 258.079 46.5767 257.787 46.4286C257.494 46.2768 257.158 46.2009 256.779 46.2009C256.403 46.2009 256.067 46.2768 255.771 46.4286C255.475 46.5767 255.241 46.7817 255.071 47.0436C254.904 47.3017 254.82 47.5997 254.82 47.9376C254.82 48.2678 254.902 48.5601 255.065 48.8145C255.228 49.065 255.458 49.2624 255.754 49.4066C256.05 49.5471 256.392 49.6173 256.779 49.6173ZM256.779 44.4072C257.105 44.4072 257.396 44.3408 257.65 44.2079C257.904 44.0751 258.104 43.891 258.248 43.6556C258.392 43.4202 258.464 43.1488 258.464 42.8413C258.464 42.5377 258.392 42.2719 258.248 42.0442C258.104 41.8126 257.906 41.6323 257.656 41.5032C257.405 41.3704 257.113 41.3039 256.779 41.3039C256.449 41.3039 256.156 41.3704 255.902 41.5032C255.648 41.6323 255.448 41.8126 255.304 42.0442C255.164 42.2719 255.093 42.5377 255.093 42.8413C255.093 43.1488 255.166 43.4202 255.31 43.6556C255.454 43.891 255.653 44.0751 255.908 44.2079C256.162 44.3408 256.452 44.4072 256.779 44.4072Z" fill="white"/>
<path d="M247.919 68.593L247.919 69.3901L244.619 69.3901L244.619 68.593L247.919 68.593ZM245.608 74.7153L245.608 67.748C245.608 67.3972 245.69 67.1049 245.855 66.8711C246.019 66.6372 246.233 66.4619 246.496 66.3449C246.759 66.228 247.037 66.1696 247.329 66.1696C247.561 66.1696 247.749 66.1882 247.895 66.2254C248.042 66.2626 248.15 66.2971 248.222 66.329L247.951 67.1421C247.903 67.1262 247.837 67.1062 247.752 67.0823C247.67 67.0584 247.561 67.0465 247.425 67.0465C247.114 67.0465 246.89 67.1248 246.751 67.2816C246.616 67.4384 246.548 67.6683 246.548 67.9712L246.548 74.7153L245.608 74.7153ZM248.837 74.7153L248.837 68.593L249.746 68.593L249.746 69.5177L249.809 69.5177C249.921 69.2148 250.123 68.969 250.415 68.7803C250.707 68.5916 251.037 68.4973 251.404 68.4973C251.473 68.4973 251.559 68.4986 251.663 68.5013C251.766 68.504 251.845 68.5079 251.898 68.5133L251.898 69.4699C251.866 69.4619 251.793 69.4499 251.679 69.434C251.567 69.4154 251.449 69.4061 251.324 69.4061C251.026 69.4061 250.761 69.4685 250.527 69.5934C250.296 69.7157 250.112 69.8857 249.977 70.1036C249.844 70.3189 249.777 70.5647 249.777 70.841L249.777 74.7153L248.837 74.7153ZM254.913 74.8428C254.36 74.8428 253.875 74.7113 253.458 74.4482C253.044 74.1852 252.719 73.8171 252.486 73.3441C252.254 72.8711 252.139 72.3184 252.139 71.686C252.139 71.0483 252.254 70.4916 252.486 70.0159C252.719 69.5403 253.044 69.1709 253.458 68.9079C253.875 68.6448 254.36 68.5133 254.913 68.5133C255.466 68.5133 255.949 68.6448 256.364 68.9079C256.781 69.1709 257.105 69.5403 257.336 70.0159C257.57 70.4916 257.687 71.0483 257.687 71.686C257.687 72.3184 257.57 72.8711 257.336 73.3441C257.105 73.8171 256.781 74.1852 256.364 74.4482C255.949 74.7113 255.466 74.8428 254.913 74.8428ZM254.913 73.9978C255.333 73.9978 255.678 73.8902 255.949 73.675C256.22 73.4597 256.421 73.1767 256.551 72.826C256.681 72.4752 256.746 72.0952 256.746 71.686C256.746 71.2768 256.681 70.8955 256.551 70.5421C256.421 70.1887 256.22 69.903 255.949 69.6851C255.678 69.4672 255.333 69.3583 254.913 69.3583C254.493 69.3583 254.148 69.4672 253.877 69.6851C253.606 69.903 253.405 70.1887 253.275 70.5421C253.145 70.8955 253.079 71.2768 253.079 71.686C253.079 72.0952 253.145 72.4752 253.275 72.826C253.405 73.1767 253.606 73.4597 253.877 73.675C254.148 73.8902 254.493 73.9978 254.913 73.9978ZM258.722 74.7153L258.722 68.593L259.631 68.593L259.631 69.5496L259.711 69.5496C259.838 69.2227 260.044 68.969 260.328 68.7883C260.613 68.6049 260.954 68.5133 261.353 68.5133C261.757 68.5133 262.093 68.6049 262.361 68.7883C262.632 68.969 262.844 69.2227 262.995 69.5496L263.059 69.5496C263.216 69.2334 263.451 68.9823 263.764 68.7963C264.078 68.6076 264.454 68.5133 264.892 68.5133C265.44 68.5133 265.887 68.6847 266.236 69.0274C266.584 69.3676 266.758 69.8977 266.758 70.6178L266.758 74.7153L265.817 74.7153L265.817 70.6178C265.817 70.1661 265.693 69.8432 265.446 69.6492C265.199 69.4553 264.908 69.3583 264.573 69.3583C264.143 69.3583 263.809 69.4885 263.573 69.7489C263.336 70.0066 263.218 70.3335 263.218 70.7294L263.218 74.7153L262.262 74.7153L262.262 70.5221C262.262 70.174 262.149 69.8937 261.923 69.6811C261.697 69.4659 261.406 69.3583 261.05 69.3583C260.805 69.3583 260.577 69.4234 260.364 69.5536C260.154 69.6838 259.984 69.8645 259.854 70.0956C259.727 70.3242 259.663 70.5886 259.663 70.8888L259.663 74.7153L258.722 74.7153ZM271.773 66.5522L271.773 74.7153L270.833 74.7153L270.833 66.5522L271.773 66.5522ZM274.897 74.8588C274.509 74.8588 274.157 74.7857 273.841 74.6395C273.524 74.4907 273.273 74.2768 273.087 73.9978C272.901 73.7161 272.808 73.376 272.808 72.9774C272.808 72.6267 272.877 72.3424 273.016 72.1245C273.154 71.9039 273.338 71.7312 273.57 71.6063C273.801 71.4814 274.056 71.3884 274.335 71.3273C274.617 71.2635 274.9 71.213 275.184 71.1758C275.556 71.128 275.858 71.0921 276.089 71.0682C276.323 71.0416 276.493 70.9978 276.599 70.9367C276.708 70.8756 276.762 70.7693 276.762 70.6178L276.762 70.5859C276.762 70.1926 276.655 69.8871 276.439 69.6692C276.227 69.4513 275.904 69.3423 275.471 69.3423C275.022 69.3423 274.67 69.4406 274.415 69.6373C274.16 69.8339 273.98 70.0438 273.877 70.267L272.984 69.9482C273.143 69.5762 273.356 69.2865 273.621 69.0793C273.89 68.8693 274.182 68.7232 274.498 68.6408C274.817 68.5558 275.131 68.5133 275.439 68.5133C275.636 68.5133 275.862 68.5372 276.117 68.585C276.374 68.6302 276.623 68.7245 276.862 68.868C277.104 69.0115 277.304 69.2281 277.464 69.5177C277.623 69.8073 277.703 70.1953 277.703 70.6816L277.703 74.7153L276.762 74.7153L276.762 73.8862L276.715 73.8862C276.651 74.0191 276.544 74.1612 276.396 74.3127C276.247 74.4642 276.049 74.593 275.802 74.6993C275.555 74.8056 275.253 74.8588 274.897 74.8588ZM275.04 74.0138C275.412 74.0138 275.726 73.9407 275.981 73.7945C276.239 73.6484 276.433 73.4597 276.563 73.2285C276.696 72.9974 276.762 72.7542 276.762 72.4991L276.762 71.6382C276.722 71.686 276.635 71.7299 276.499 71.7697C276.366 71.8069 276.212 71.8401 276.037 71.8694C275.864 71.8959 275.695 71.9198 275.531 71.9411C275.369 71.9597 275.237 71.9757 275.136 71.9889C274.892 72.0208 274.663 72.0726 274.451 72.1444C274.241 72.2135 274.071 72.3184 273.94 72.4593C273.813 72.5974 273.749 72.7861 273.749 73.0253C273.749 73.3521 273.87 73.5992 274.112 73.7666C274.356 73.9314 274.666 74.0138 275.04 74.0138ZM283.356 69.9641L282.511 70.2033C282.458 70.0624 282.379 69.9256 282.276 69.7927C282.175 69.6572 282.036 69.5456 281.861 69.4579C281.686 69.3702 281.461 69.3264 281.187 69.3264C280.813 69.3264 280.5 69.4127 280.251 69.5855C280.004 69.7555 279.88 69.9721 279.88 70.2352C279.88 70.469 279.965 70.6537 280.135 70.7892C280.305 70.9247 280.571 71.0376 280.932 71.128L281.841 71.3512C282.388 71.4841 282.796 71.6873 283.065 71.961C283.333 72.2321 283.467 72.5815 283.467 73.0093C283.467 73.3601 283.366 73.6736 283.164 73.95C282.965 74.2263 282.686 74.4442 282.327 74.6037C281.969 74.7631 281.551 74.8428 281.076 74.8428C280.451 74.8428 279.934 74.7073 279.525 74.4363C279.116 74.1652 278.857 73.7693 278.748 73.2485L279.641 73.0253C279.726 73.3548 279.887 73.6019 280.123 73.7666C280.362 73.9314 280.675 74.0138 281.06 74.0138C281.498 74.0138 281.846 73.9208 282.104 73.7347C282.365 73.5461 282.495 73.3202 282.495 73.0571C282.495 72.8446 282.42 72.6665 282.272 72.523C282.123 72.3769 281.894 72.2679 281.586 72.1962L280.566 71.957C280.005 71.8242 279.593 71.6183 279.33 71.3392C279.07 71.0576 278.939 70.7055 278.939 70.283C278.939 69.9375 279.036 69.632 279.23 69.3662C279.427 69.1005 279.694 68.8919 280.031 68.7405C280.372 68.589 280.757 68.5133 281.187 68.5133C281.793 68.5133 282.269 68.6461 282.614 68.9118C282.962 69.1776 283.21 69.5283 283.356 69.9641ZM287.145 68.593L287.145 69.3901L283.972 69.3901L283.972 68.593L287.145 68.593ZM284.897 67.1262L285.838 67.1262L285.838 72.9615C285.838 73.2272 285.876 73.4265 285.953 73.5594C286.033 73.6896 286.134 73.7773 286.256 73.8224C286.381 73.865 286.513 73.8862 286.651 73.8862C286.754 73.8862 286.839 73.8809 286.906 73.8703C286.972 73.857 287.025 73.8464 287.065 73.8384L287.257 74.6834C287.193 74.7073 287.104 74.7312 286.99 74.7551C286.875 74.7817 286.73 74.795 286.555 74.795C286.289 74.795 286.029 74.7379 285.774 74.6236C285.521 74.5093 285.311 74.3353 285.144 74.1014C284.979 73.8676 284.897 73.5727 284.897 73.2166L284.897 67.1262ZM291.521 77.0111C291.361 77.0111 291.219 76.9978 291.094 76.9713C290.969 76.9474 290.883 76.9234 290.835 76.8995L291.074 76.0705C291.303 76.1289 291.505 76.1502 291.68 76.1342C291.856 76.1183 292.011 76.0399 292.147 75.8991C292.285 75.7609 292.411 75.5364 292.525 75.2255L292.701 74.7472L290.437 68.593L291.457 68.593L293.147 73.4717L293.211 73.4717L294.901 68.593L295.921 68.593L293.322 75.6081C293.206 75.9243 293.061 76.1861 292.888 76.3933C292.715 76.6032 292.515 76.7587 292.286 76.8597C292.06 76.9606 291.805 77.0111 291.521 77.0111ZM299.11 74.8428C298.52 74.8428 298.011 74.7126 297.583 74.4522C297.158 74.1891 296.83 73.8224 296.599 73.3521C296.37 72.8791 296.256 72.3291 296.256 71.702C296.256 71.0748 296.37 70.5221 296.599 70.0438C296.83 69.5629 297.151 69.1882 297.563 68.9198C297.978 68.6488 298.461 68.5133 299.014 68.5133C299.333 68.5133 299.648 68.5664 299.959 68.6727C300.27 68.779 300.553 68.9517 300.808 69.1909C301.063 69.4274 301.266 69.7409 301.418 70.1315C301.569 70.5221 301.645 71.0031 301.645 71.5744L301.645 71.973L296.925 71.973L296.925 71.1599L300.688 71.1599C300.688 70.8144 300.619 70.5062 300.481 70.2352C300.345 69.9641 300.151 69.7502 299.899 69.5934C299.649 69.4367 299.354 69.3583 299.014 69.3583C298.639 69.3583 298.315 69.4513 298.041 69.6373C297.77 69.8206 297.562 70.0598 297.416 70.3547C297.27 70.6497 297.196 70.9659 297.196 71.3034L297.196 71.8454C297.196 72.3078 297.276 72.6997 297.436 73.0213C297.598 73.3401 297.822 73.5833 298.109 73.7507C298.396 73.9154 298.73 73.9978 299.11 73.9978C299.357 73.9978 299.58 73.9633 299.779 73.8942C299.981 73.8224 300.155 73.7161 300.301 73.5753C300.448 73.4318 300.561 73.2538 300.64 73.0412L301.549 73.2963C301.453 73.6045 301.293 73.8756 301.067 74.1094C300.841 74.3406 300.562 74.5213 300.23 74.6515C299.898 74.779 299.524 74.8428 299.11 74.8428ZM304.476 74.8588C304.088 74.8588 303.736 74.7857 303.42 74.6395C303.104 74.4907 302.853 74.2768 302.667 73.9978C302.481 73.7161 302.388 73.376 302.388 72.9774C302.388 72.6267 302.457 72.3424 302.595 72.1245C302.733 71.9039 302.918 71.7312 303.149 71.6063C303.38 71.4814 303.635 71.3884 303.914 71.3273C304.196 71.2635 304.479 71.213 304.763 71.1758C305.135 71.128 305.437 71.0921 305.668 71.0682C305.902 71.0416 306.072 70.9978 306.178 70.9367C306.287 70.8756 306.342 70.7693 306.342 70.6178L306.342 70.5859C306.342 70.1926 306.234 69.8871 306.019 69.6692C305.806 69.4513 305.483 69.3423 305.05 69.3423C304.601 69.3423 304.249 69.4406 303.994 69.6373C303.739 69.8339 303.56 70.0438 303.456 70.267L302.563 69.9482C302.723 69.5762 302.935 69.2865 303.201 69.0793C303.469 68.8693 303.762 68.7232 304.078 68.6408C304.397 68.5558 304.71 68.5133 305.018 68.5133C305.215 68.5133 305.441 68.5372 305.696 68.585C305.954 68.6302 306.202 68.7245 306.441 68.868C306.683 69.0115 306.884 69.2281 307.043 69.5177C307.203 69.8073 307.282 70.1953 307.282 70.6816L307.282 74.7153L306.342 74.7153L306.342 73.8862L306.294 73.8862C306.23 74.0191 306.124 74.1612 305.975 74.3127C305.826 74.4642 305.628 74.593 305.381 74.6993C305.134 74.8056 304.832 74.8588 304.476 74.8588ZM304.62 74.0138C304.992 74.0138 305.305 73.9407 305.561 73.7945C305.818 73.6484 306.012 73.4597 306.142 73.2285C306.275 72.9974 306.342 72.7542 306.342 72.4991L306.342 71.6382C306.302 71.686 306.214 71.7299 306.079 71.7697C305.946 71.8069 305.792 71.8401 305.616 71.8694C305.444 71.8959 305.275 71.9198 305.11 71.9411C304.948 71.9597 304.816 71.9757 304.716 71.9889C304.471 72.0208 304.243 72.0726 304.03 72.1444C303.82 72.2135 303.65 72.3184 303.52 72.4593C303.392 72.5974 303.328 72.7861 303.328 73.0253C303.328 73.3521 303.449 73.5992 303.691 73.7666C303.936 73.9314 304.245 74.0138 304.62 74.0138ZM308.598 74.7153L308.598 68.593L309.507 68.593L309.507 69.5177L309.571 69.5177C309.683 69.2148 309.885 68.969 310.177 68.7803C310.469 68.5916 310.799 68.4973 311.165 68.4973C311.234 68.4973 311.321 68.4986 311.424 68.5013C311.528 68.504 311.606 68.5079 311.66 68.5133L311.66 69.4699C311.628 69.4619 311.555 69.4499 311.44 69.434C311.329 69.4154 311.211 69.4061 311.086 69.4061C310.788 69.4061 310.522 69.4685 310.288 69.5934C310.057 69.7157 309.874 69.8857 309.738 70.1036C309.606 70.3189 309.539 70.5647 309.539 70.841L309.539 74.7153L308.598 74.7153Z" fill="#5C616E"/>
<path d="M217.377 66.3535L217.377 74.5165L215.898 74.5165L215.898 67.7923L215.85 67.7923L213.941 69.012L213.941 67.6568L215.97 66.3535L217.377 66.3535ZM219.905 74.6042C219.663 74.6042 219.456 74.5192 219.283 74.3491C219.11 74.179 219.025 73.9718 219.028 73.7273C219.025 73.4882 219.11 73.2835 219.283 73.1135C219.456 72.9434 219.663 72.8584 219.905 72.8584C220.139 72.8584 220.342 72.9434 220.515 73.1135C220.69 73.2835 220.779 73.4882 220.782 73.7273C220.779 73.8894 220.736 74.0369 220.654 74.1697C220.574 74.3026 220.468 74.4089 220.335 74.4886C220.205 74.5657 220.062 74.6042 219.905 74.6042ZM222.255 74.5165L222.255 73.4483L225.089 70.6701C225.36 70.3965 225.586 70.1533 225.767 69.9407C225.948 69.7282 226.083 69.5222 226.174 69.3229C226.264 69.1236 226.309 68.911 226.309 68.6852C226.309 68.4274 226.251 68.2069 226.134 68.0235C226.017 67.8375 225.856 67.694 225.651 67.5931C225.447 67.4921 225.214 67.4416 224.954 67.4416C224.685 67.4416 224.45 67.4974 224.248 67.609C224.046 67.7179 223.89 67.8734 223.778 68.0753C223.669 68.2773 223.615 68.5178 223.615 68.7968L222.208 68.7968C222.208 68.2786 222.326 67.8282 222.562 67.4456C222.799 67.0629 223.124 66.7667 223.539 66.5567C223.956 66.3468 224.434 66.2418 224.974 66.2418C225.521 66.2418 226.002 66.3441 226.417 66.5488C226.831 66.7534 227.153 67.0337 227.381 67.3898C227.612 67.7458 227.728 68.1524 227.728 68.6095C227.728 68.915 227.67 69.2153 227.553 69.5103C227.436 69.8052 227.23 70.1321 226.935 70.4908C226.643 70.8495 226.232 71.284 225.703 71.7942L224.296 73.2251L224.296 73.2809L227.852 73.2809L227.852 74.5165L222.255 74.5165ZM233.591 72.9859L233.591 72.5555C233.591 72.2393 233.658 71.9483 233.791 71.6826C233.926 71.4168 234.123 71.2029 234.38 71.0408C234.638 70.8787 234.95 70.7977 235.317 70.7977C235.694 70.7977 236.011 70.8787 236.266 71.0408C236.521 71.2003 236.713 71.4128 236.844 71.6786C236.977 71.9443 237.043 72.2366 237.043 72.5555L237.043 72.9859C237.043 73.3021 236.977 73.5931 236.844 73.8588C236.711 74.1246 236.516 74.3385 236.258 74.5006C236.003 74.6627 235.689 74.7437 235.317 74.7437C234.945 74.7437 234.63 74.6627 234.372 74.5006C234.115 74.3385 233.919 74.1246 233.787 73.8588C233.656 73.5931 233.591 73.3021 233.591 72.9859ZM234.632 72.5555L234.632 72.9859C234.632 73.1959 234.682 73.3885 234.783 73.5639C234.884 73.7393 235.062 73.827 235.317 73.827C235.575 73.827 235.752 73.7406 235.847 73.5679C235.946 73.3925 235.995 73.1985 235.995 72.9859L235.995 72.5555C235.995 72.3429 235.948 72.1489 235.855 71.9735C235.762 71.7955 235.583 71.7065 235.317 71.7065C235.067 71.7065 234.891 71.7955 234.787 71.9735C234.683 72.1489 234.632 72.3429 234.632 72.5555ZM229.442 68.3145L229.442 67.884C229.442 67.5652 229.51 67.2729 229.645 67.0071C229.781 66.7414 229.977 66.5288 230.235 66.3694C230.493 66.2073 230.805 66.1263 231.172 66.1263C231.546 66.1263 231.861 66.2073 232.116 66.3694C232.374 66.5288 232.568 66.7414 232.698 67.0071C232.829 67.2729 232.894 67.5652 232.894 67.884L232.894 68.3145C232.894 68.6334 232.827 68.9257 232.694 69.1914C232.564 69.4545 232.37 69.6657 232.112 69.8251C231.855 69.9846 231.541 70.0643 231.172 70.0643C230.797 70.0643 230.481 69.9846 230.223 69.8251C229.968 69.6657 229.774 69.4531 229.641 69.1874C229.508 68.9217 229.442 68.6307 229.442 68.3145ZM230.49 67.884L230.49 68.3145C230.49 68.5271 230.539 68.7211 230.638 68.8964C230.739 69.0692 230.917 69.1555 231.172 69.1555C231.427 69.1555 231.602 69.0692 231.698 68.8964C231.796 68.7211 231.845 68.5271 231.845 68.3145L231.845 67.884C231.845 67.6714 231.799 67.4775 231.706 67.3021C231.613 67.1241 231.435 67.035 231.172 67.035C230.919 67.035 230.743 67.1241 230.642 67.3021C230.541 67.4801 230.49 67.6741 230.49 67.884ZM229.896 74.5165L235.508 66.3535L236.505 66.3535L230.893 74.5165L229.896 74.5165Z" fill="#E35454"/>
<path d="M201.218 71.1077L204.202 74.1364L207.23 71.1522" stroke="#E35454" stroke-width="1.60346" stroke-linecap="round" stroke-linejoin="round"/>
<path d="M204.256 66.921L204.202 74.1363" stroke="#E35454" stroke-width="1.60346" stroke-linecap="round"/>
<path d="M200.223 19.8715L202.033 19.8715L204.456 25.7866L204.552 25.7866L206.975 19.8715L208.785 19.8715L208.785 28.0346L207.366 28.0346L207.366 22.4265L207.29 22.4265L205.034 28.0107L203.974 28.0107L201.718 22.4145L201.642 22.4145L201.642 28.0346L200.223 28.0346L200.223 19.8715ZM212.093 28.1582C211.705 28.1582 211.356 28.0891 211.045 27.9509C210.737 27.8101 210.492 27.6028 210.311 27.3291C210.133 27.0554 210.044 26.7179 210.044 26.3167C210.044 25.9713 210.108 25.6856 210.236 25.4597C210.363 25.2339 210.537 25.0532 210.758 24.9177C210.978 24.7821 211.227 24.6798 211.503 24.6107C211.782 24.539 212.07 24.4872 212.368 24.4553C212.727 24.4181 213.018 24.3849 213.241 24.3556C213.464 24.3238 213.626 24.2759 213.727 24.2122C213.831 24.1457 213.883 24.0434 213.883 23.9052L213.883 23.8813C213.883 23.5811 213.794 23.3486 213.616 23.1838C213.438 23.0191 213.181 22.9367 212.846 22.9367C212.493 22.9367 212.213 23.0137 212.005 23.1679C211.801 23.322 211.663 23.504 211.591 23.7139L210.244 23.5226C210.35 23.1506 210.525 22.8397 210.77 22.5899C211.014 22.3375 211.313 22.1488 211.667 22.0239C212.02 21.8964 212.411 21.8326 212.838 21.8326C213.133 21.8326 213.427 21.8671 213.719 21.9362C214.012 22.0053 214.279 22.1196 214.52 22.279C214.762 22.4358 214.956 22.6497 215.102 22.9207C215.251 23.1918 215.326 23.5306 215.326 23.9371L215.326 28.0346L213.938 28.0346L213.938 27.1936L213.891 27.1936C213.803 27.3637 213.679 27.5231 213.52 27.6719C213.363 27.818 213.165 27.9363 212.926 28.0266C212.69 28.1143 212.412 28.1582 212.093 28.1582ZM212.468 27.0979C212.757 27.0979 213.008 27.0408 213.221 26.9265C213.434 26.8096 213.597 26.6555 213.711 26.4642C213.828 26.2729 213.887 26.0643 213.887 25.8384L213.887 25.117C213.841 25.1542 213.764 25.1887 213.655 25.2206C213.549 25.2525 213.43 25.2804 213.297 25.3043C213.164 25.3282 213.032 25.3495 212.902 25.3681C212.772 25.3867 212.659 25.4026 212.563 25.4159C212.348 25.4451 212.155 25.493 211.985 25.5594C211.815 25.6258 211.681 25.7188 211.583 25.8384C211.485 25.9553 211.435 26.1068 211.435 26.2928C211.435 26.5585 211.532 26.7591 211.726 26.8946C211.92 27.0302 212.167 27.0979 212.468 27.0979ZM216.776 28.0346L216.776 21.9123L218.175 21.9123L218.175 22.9327L218.239 22.9327C218.351 22.5793 218.542 22.3069 218.813 22.1156C219.087 21.9216 219.399 21.8246 219.75 21.8246C219.83 21.8246 219.919 21.8286 220.017 21.8366C220.118 21.8419 220.202 21.8512 220.268 21.8645L220.268 23.1918C220.207 23.1705 220.11 23.1519 219.977 23.136C219.847 23.1174 219.721 23.1081 219.598 23.1081C219.335 23.1081 219.099 23.1652 218.889 23.2795C218.682 23.3911 218.518 23.5465 218.399 23.7458C218.279 23.9451 218.219 24.175 218.219 24.4354L218.219 28.0346L216.776 28.0346ZM222.542 26.1134L222.538 24.3716L222.769 24.3716L224.969 21.9123L226.655 21.9123L223.949 24.9256L223.65 24.9256L222.542 26.1134ZM221.227 28.0346L221.227 19.8715L222.67 19.8715L222.67 28.0346L221.227 28.0346ZM225.069 28.0346L223.076 25.2485L224.049 24.2321L226.795 28.0346L225.069 28.0346ZM230.075 28.1542C229.461 28.1542 228.931 28.0266 228.485 27.7715C228.041 27.5138 227.7 27.1497 227.461 26.6794C227.221 26.2064 227.102 25.6497 227.102 25.0093C227.102 24.3796 227.221 23.8269 227.461 23.3512C227.702 22.8729 228.04 22.5009 228.473 22.2352C228.906 21.9668 229.415 21.8326 230 21.8326C230.377 21.8326 230.733 21.8937 231.068 22.0159C231.405 22.1355 231.703 22.3215 231.961 22.574C232.221 22.8264 232.426 23.1479 232.574 23.5385C232.723 23.9265 232.798 24.3889 232.798 24.9256L232.798 25.3681L227.779 25.3681L227.779 24.3955L231.415 24.3955C231.412 24.1192 231.352 23.8734 231.235 23.6581C231.118 23.4402 230.955 23.2688 230.745 23.1439C230.538 23.0191 230.296 22.9566 230.019 22.9566C229.725 22.9566 229.465 23.0284 229.242 23.1718C229.019 23.3127 228.845 23.4987 228.72 23.7299C228.598 23.9584 228.535 24.2095 228.533 24.4832L228.533 25.3322C228.533 25.6883 228.598 25.9938 228.728 26.2489C228.858 26.5014 229.04 26.6954 229.274 26.8309C229.508 26.9637 229.782 27.0302 230.095 27.0302C230.305 27.0302 230.495 27.0009 230.665 26.9425C230.835 26.8814 230.983 26.7923 231.108 26.6754C231.233 26.5585 231.327 26.4137 231.391 26.241L232.738 26.3924C232.653 26.7485 232.491 27.0594 232.252 27.3251C232.015 27.5882 231.712 27.7928 231.343 27.9389C230.973 28.0824 230.551 28.1542 230.075 28.1542ZM237.075 21.9123L237.075 23.0284L233.556 23.0284L233.556 21.9123L237.075 21.9123ZM234.425 20.4455L235.868 20.4455L235.868 26.1931C235.868 26.3871 235.897 26.5359 235.955 26.6396C236.017 26.7405 236.096 26.8096 236.195 26.8468C236.293 26.884 236.402 26.9026 236.521 26.9026C236.612 26.9026 236.694 26.896 236.769 26.8827C236.846 26.8694 236.904 26.8574 236.944 26.8468L237.187 27.9748C237.11 28.0014 237 28.0306 236.856 28.0625C236.715 28.0944 236.543 28.113 236.338 28.1183C235.977 28.1289 235.651 28.0745 235.362 27.9549C235.072 27.8327 234.842 27.644 234.672 27.3889C234.505 27.1338 234.422 26.8149 234.425 26.4323L234.425 20.4455ZM238.282 28.0346L238.282 21.9123L239.725 21.9123L239.725 28.0346L238.282 28.0346ZM239.008 21.0434C238.779 21.0434 238.582 20.9677 238.418 20.8162C238.253 20.6621 238.171 20.4774 238.171 20.2622C238.171 20.0443 238.253 19.8596 238.418 19.7081C238.582 19.554 238.779 19.4769 239.008 19.4769C239.239 19.4769 239.435 19.554 239.598 19.7081C239.762 19.8596 239.845 20.0443 239.845 20.2622C239.845 20.4774 239.762 20.6621 239.598 20.8162C239.435 20.9677 239.239 21.0434 239.008 21.0434ZM242.652 24.4473L242.652 28.0346L241.209 28.0346L241.209 21.9123L242.588 21.9123L242.588 22.9526L242.66 22.9526C242.8 22.6098 243.025 22.3375 243.333 22.1355C243.644 21.9336 244.028 21.8326 244.485 21.8326C244.908 21.8326 245.276 21.9229 245.589 22.1036C245.905 22.2843 246.15 22.5461 246.323 22.8888C246.498 23.2316 246.584 23.6475 246.582 24.1364L246.582 28.0346L245.139 28.0346L245.139 24.3596C245.139 23.9504 245.033 23.6302 244.82 23.399C244.61 23.1679 244.319 23.0523 243.947 23.0523C243.695 23.0523 243.47 23.1081 243.273 23.2197C243.08 23.3286 242.927 23.4867 242.815 23.694C242.706 23.9013 242.652 24.1524 242.652 24.4473ZM250.711 30.458C250.193 30.458 249.748 30.3876 249.376 30.2468C249.004 30.1086 248.705 29.9226 248.479 29.6887C248.253 29.4549 248.096 29.1958 248.009 28.9115L249.308 28.5966C249.367 28.7162 249.452 28.8344 249.563 28.9514C249.675 29.0709 249.825 29.1693 250.014 29.2463C250.205 29.326 250.445 29.3659 250.735 29.3659C251.144 29.3659 251.483 29.2662 251.751 29.0669C252.02 28.8703 252.154 28.5461 252.154 28.0944L252.154 26.9345L252.082 26.9345C252.008 27.0833 251.899 27.2361 251.755 27.3929C251.615 27.5497 251.427 27.6812 251.193 27.7875C250.962 27.8938 250.671 27.9469 250.32 27.9469C249.85 27.9469 249.424 27.8366 249.041 27.6161C248.661 27.3929 248.358 27.0607 248.132 26.6196C247.909 26.1759 247.797 25.6205 247.797 24.9535C247.797 24.2812 247.909 23.7139 248.132 23.2516C248.358 22.7865 248.662 22.4345 249.045 22.1953C249.428 21.9535 249.854 21.8326 250.324 21.8326C250.683 21.8326 250.978 21.8937 251.209 22.0159C251.443 22.1355 251.629 22.2803 251.767 22.4504C251.906 22.6178 252.011 22.7759 252.082 22.9247L252.162 22.9247L252.162 21.9123L253.585 21.9123L253.585 28.1343C253.585 28.6577 253.46 29.0909 253.21 29.4336C252.96 29.7764 252.619 30.0329 252.186 30.2029C251.753 30.373 251.261 30.458 250.711 30.458ZM250.723 26.8149C251.029 26.8149 251.289 26.7405 251.504 26.5917C251.72 26.4429 251.883 26.229 251.995 25.95C252.106 25.671 252.162 25.3362 252.162 24.9456C252.162 24.5603 252.106 24.2228 251.995 23.9331C251.886 23.6435 251.724 23.419 251.508 23.2595C251.296 23.0974 251.034 23.0164 250.723 23.0164C250.402 23.0164 250.133 23.1001 249.918 23.2675C249.703 23.4349 249.541 23.6648 249.432 23.9571C249.323 24.2467 249.268 24.5762 249.268 24.9456C249.268 25.3202 249.323 25.6484 249.432 25.9301C249.543 26.2091 249.707 26.427 249.922 26.5838C250.14 26.7379 250.407 26.8149 250.723 26.8149Z" fill="#5C616F"/>
</svg>
